<?xml version="1.0" encoding="UTF-8" standalone="no"?>
<svg
   version="1.1"
   width="818"
   height="148"
   id="svg22"
   sodipodi:docname="Screenshot 2025-09-14 at 9.49.34 PM.svg"
   inkscape:version="1.4 (e7c3feb1, 2024-10-09)"
   xmlns:inkscape="http://www.inkscape.org/namespaces/inkscape"
   xmlns:sodipodi="http://sodipodi.sourceforge.net/DTD/sodipodi-0.dtd"
   xmlns="http://www.w3.org/2000/svg"
   xmlns:svg="http://www.w3.org/2000/svg">
  <defs
     id="defs22" />
  <path
     d="M0 0 C4.13559633 3.79242982 7.63706561 8.0458829 8.3359375 13.734375 C8.44860687 22.43245073 7.01732787 27.97394471 1.0625 34.375 C-3.36685784 38.79201979 -8.23713156 39.33200331 -14.3125 39.4375 C-19.73128647 39.4217439 -24.0371984 39.00709667 -28.41796875 35.609375 C-33.07562844 30.87121255 -35.75626444 25.99544043 -36.125 19.2890625 C-35.68375689 11.20879801 -31.91241619 5.34633379 -26 0 C-17.30181249 -5.28713359 -8.70167642 -5.42668184 0 0 Z "
     fill="#DCDCDC"
     transform="translate(477,67)"
     id="path2" />
  <path
     d="M0 0 C0.495 15.345 0.495 15.345 1 31 C3.97 29.35 6.94 27.7 10 26 C14.4414881 25.32248487 16.29467713 25.62021076 20.25 27.75 C23.75854734 30.62062964 25.80256988 32.34409922 26.35302734 36.9609375 C26.34456787 38.65089844 26.34456787 38.65089844 26.3359375 40.375 C26.34882813 41.60734375 26.36171875 42.8396875 26.375 44.109375 C26.375 46.70313677 26.36718729 49.2969103 26.3515625 51.890625 C26.36703125 53.12296875 26.3825 54.3553125 26.3984375 55.625 C26.39505371 56.75164062 26.39166992 57.87828125 26.38818359 59.0390625 C27.18600949 62.90020874 28.85162486 63.792454 32 66 C32 66.66 32 67.32 32 68 C24.41 68 16.82 68 9 68 C9 67.01 9 66.02 9 65 C9.8146875 64.66871094 10.629375 64.33742188 11.46875 63.99609375 C14.18993693 62.29078447 14.18993693 62.29078447 14.4609375 59.76611328 C14.60270505 56.85101795 14.5822305 53.97981404 14.5 51.0625 C14.50257813 50.06025391 14.50515625 49.05800781 14.5078125 48.02539062 C14.50580248 41.41336376 14.50580248 41.41336376 11 36 C7.63083028 35.27279307 4.10920609 35.44539695 1 37 C1 45.58 1 54.16 1 63 C2.32 63.66 3.64 64.32 5 65 C5 65.99 5 66.98 5 68 C-2.59 68 -10.18 68 -18 68 C-16 64 -16 64 -13 63 C-12.89874759 55.50703445 -12.82859673 48.01424467 -12.78027344 40.52075195 C-12.76013303 37.97055468 -12.73281903 35.42040372 -12.69824219 32.87036133 C-12.64983261 29.20903103 -12.62705526 25.54831018 -12.609375 21.88671875 C-12.58872986 20.7428923 -12.56808472 19.59906586 -12.54681396 18.420578 C-12.54651184 17.35970474 -12.54620972 16.29883148 -12.54589844 15.20581055 C-12.53701599 14.27093307 -12.52813354 13.3360556 -12.51898193 12.37284851 C-12.79041119 9.82419357 -12.79041119 9.82419357 -15.02838135 8.17463684 C-15.6790155 7.78700668 -16.32964966 7.39937653 -17 7 C-16.67 6.01 -16.34 5.02 -16 4 C-13.41796875 2.83203125 -13.41796875 2.83203125 -10.1875 1.8125 C-9.12917969 1.46832031 -8.07085937 1.12414063 -6.98046875 0.76953125 C-4 0 -4 0 0 0 Z "
     fill="#DEDEDE"
     transform="translate(125,37)"
     id="path3" />
  <path
     d="M0 0 C0.84691406 -0.01611328 1.69382812 -0.03222656 2.56640625 -0.04882812 C8.3828603 -0.05328177 13.89265127 0.59741545 19.125 3.3125 C21.54630331 6.94445496 21.33522785 8.69599348 21.25 13 C21.23195313 14.17949219 21.21390625 15.35898437 21.1953125 16.57421875 C21.17210937 17.47785156 21.14890625 18.38148437 21.125 19.3125 C19.805 19.3125 18.485 19.3125 17.125 19.3125 C16.856875 18.62542969 16.58875 17.93835938 16.3125 17.23046875 C13.73385361 11.00403784 13.73385361 11.00403784 8.5 7.1875 C2.73266551 5.68581668 -3.59889452 4.98346222 -9.21484375 7.26171875 C-15.3793468 10.90072707 -19.11199882 15.73139554 -21.875 22.3125 C-22.31941946 25.23941603 -22.35093269 28.10597243 -22.3125 31.0625 C-22.30637695 31.85873779 -22.30025391 32.65497559 -22.29394531 33.4753418 C-22.09090094 41.13870511 -20.08751326 46.67765678 -16.125 53.1875 C-11.36252417 57.68539384 -6.81966988 59.55335682 -0.25 59.75 C4.93054402 59.52818113 8.77407146 58.71596325 12.5234375 54.8828125 C14.58956347 52.48228464 16.36917746 49.94623381 18.125 47.3125 C19.445 47.3125 20.765 47.3125 22.125 47.3125 C21.47486794 58.85794869 21.47486794 58.85794869 18.125 62.3125 C11.82306516 65.26252377 5.62168266 65.83090235 -1.25 65.75 C-2.17466064 65.74025146 -3.09932129 65.73050293 -4.05200195 65.72045898 C-15.1981084 65.43088599 -22.65017613 62.6981547 -30.703125 54.7734375 C-37.62750747 46.92746455 -38.79152569 39.48539466 -38.2890625 29.3125 C-37.56516508 20.60955446 -33.28767787 14.10341633 -26.875 8.3125 C-18.32591332 2.11372493 -10.45254337 -0.03941381 0 0 Z "
     fill="#DDDDDD"
     transform="translate(645.875,40.6875)"
     id="path4" />
  <path
     d="M0 0 C2.46800047 1.15173355 4.04783565 2.04783565 6 4 C7.98338892 4.31191916 7.98338892 4.31191916 10.27856445 4.2746582 C11.16320877 4.28419022 12.04785309 4.29372223 12.95930481 4.30354309 C13.91761703 4.30263168 14.87592926 4.30172028 15.86328125 4.30078125 C16.84741501 4.30506638 17.83154877 4.3093515 18.84550476 4.31376648 C20.93109365 4.31951742 23.0167026 4.32000444 25.10229492 4.31567383 C28.28925028 4.31252299 31.47526951 4.33593203 34.66210938 4.36132812 C36.68749883 4.36360199 38.71289078 4.36430421 40.73828125 4.36328125 C42.16664055 4.37709587 42.16664055 4.37709587 43.62385559 4.39118958 C48.77434568 4.35530847 51.63339685 3.92977484 56 1 C57.32 1.33 58.64 1.66 60 2 C59.34 7.28 58.68 12.56 58 18 C56.68 18.33 55.36 18.66 54 19 C53.0234375 17.20963542 52.046875 15.41927083 51.0703125 13.62890625 C50.08589976 11.83381685 50.08589976 11.83381685 48 11 C45.7927077 10.92907158 43.58332548 10.91584975 41.375 10.9375 C39.59222656 10.95103516 39.59222656 10.95103516 37.7734375 10.96484375 C36.40058594 10.98224609 36.40058594 10.98224609 35 11 C33.78016252 13.43967497 33.87948473 14.99904524 33.88647461 17.72509766 C33.88655014 18.70596344 33.88662567 19.68682922 33.88670349 20.69741821 C33.89186478 21.75891083 33.89702606 22.82040344 33.90234375 23.9140625 C33.90446617 25.54122696 33.90446617 25.54122696 33.90663147 27.20126343 C33.91224198 30.67587 33.92479628 34.15041281 33.9375 37.625 C33.94251365 39.97656157 33.94707679 42.32812415 33.95117188 44.6796875 C33.96221482 50.45314686 33.97896321 56.22656888 34 62 C34.928125 62.28875 35.85625 62.5775 36.8125 62.875 C40 64 40 64 43 66 C43 66.66 43 67.32 43 68 C32.11 68 21.22 68 10 68 C12 64 12 64 19 61 C19 44.17 19 27.34 19 10 C7.75246196 10.04814748 7.75246196 10.04814748 2 14 C0.948125 15.3303125 0.948125 15.3303125 -0.125 16.6875 C-0.74375 17.450625 -1.3625 18.21375 -2 19 C-2.99 19 -3.98 19 -5 19 C-3.25 3.25 -3.25 3.25 0 0 Z "
     fill="#DFDFDF"
     transform="translate(47,37)"
     id="path5" />
  <path
     d="M0 0 C10.23 0 20.46 0 31 0 C31 0.99 31 1.98 31 3 C27.04 4.98 27.04 4.98 23 7 C22.97473162 13.96003447 22.95716778 20.9200572 22.94506836 27.88012695 C22.94002659 30.24992312 22.93319335 32.61971615 22.92456055 34.98950195 C22.9124881 38.38754039 22.90677029 41.78553785 22.90234375 45.18359375 C22.89718246 46.25024765 22.89202118 47.31690155 22.88670349 48.4158783 C22.88662796 49.39681961 22.88655243 50.37776093 22.88647461 51.38842773 C22.88314369 52.69081642 22.88314369 52.69081642 22.87974548 54.01951599 C22.78045333 56.00143681 22.78045333 56.00143681 24 57 C26.57909066 57.18145851 29.10586653 57.27820018 31.6875 57.3125 C32.39583984 57.34150391 33.10417969 57.37050781 33.83398438 57.40039062 C39.01387925 57.4625685 41.91992734 56.44499527 46 53 C47.70555667 50.93602427 47.70555667 50.93602427 48.875 48.75 C49.28492188 48.04359375 49.69484375 47.3371875 50.1171875 46.609375 C50.40851563 46.07828125 50.69984375 45.5471875 51 45 C51.99 45.33 52.98 45.66 54 46 C53.24909074 51.756971 52.14574471 57.27127643 51 63 C34.17 63 17.34 63 0 63 C0 62.01 0 61.02 0 60 C2.31 59.01 4.62 58.02 7 57 C7 40.17 7 23.34 7 6 C4.69 5.01 2.38 4.02 0 3 C0 2.01 0 1.02 0 0 Z "
     fill="#DDDDDD"
     transform="translate(221,42)"
     id="path6" />
  <path
     d="M0 0 C1.93746094 -0.02900391 1.93746094 -0.02900391 3.9140625 -0.05859375 C7.375 0.4375 7.375 0.4375 9.8125 2.26953125 C11.89183606 5.15461003 11.8287112 6.95904744 11.375 10.4375 C10.715 11.0975 10.055 11.7575 9.375 12.4375 C6.22573261 12.0840108 4.40363187 10.85545724 2 8.875 C-0.56767908 6.97403587 -1.59994141 6.44135517 -4.875 5.9375 C-7.89849013 6.48722548 -8.83768751 6.99170396 -10.625 9.4375 C-12.2748007 12.73710141 -12.00758361 16.42877884 -12.1875 20.0625 C-12.23068359 20.86429688 -12.27386719 21.66609375 -12.31835938 22.4921875 C-12.42451457 24.4737511 -12.52526855 26.45560271 -12.625 28.4375 C-8.335 28.4375 -4.045 28.4375 0.375 28.4375 C0.705 29.4275 1.035 30.4175 1.375 31.4375 C0.385 32.9225 0.385 32.9225 -0.625 34.4375 C-4.585 34.4375 -8.545 34.4375 -12.625 34.4375 C-12.625 44.0075 -12.625 53.5775 -12.625 63.4375 C-9.985 64.0975 -7.345 64.7575 -4.625 65.4375 C-4.625 66.4275 -4.625 67.4175 -4.625 68.4375 C-13.205 68.4375 -21.785 68.4375 -30.625 68.4375 C-30.625 67.4475 -30.625 66.4575 -30.625 65.4375 C-28.975 64.7775 -27.325 64.1175 -25.625 63.4375 C-25.295 53.8675 -24.965 44.2975 -24.625 34.4375 C-26.275 34.4375 -27.925 34.4375 -29.625 34.4375 C-29.955 33.1175 -30.285 31.7975 -30.625 30.4375 C-27.625 28.4375 -27.625 28.4375 -24.625 28.4375 C-24.74875 26.7359375 -24.74875 26.7359375 -24.875 25 C-24.83247904 16.96353832 -20.71236351 11.04996129 -15.6015625 5.1640625 C-10.74828212 0.92463577 -6.3459892 0.00635871 0 0 Z "
     fill="#DCDCDC"
     transform="translate(519.625,36.5625)"
     id="path7" />
  <path
     d="M0 0 C2.64233769 2.19257809 4.46669809 3.93339618 6 7 C6.15441209 9.10374996 6.24992639 11.21195119 6.31640625 13.3203125 C6.35830078 14.57714844 6.40019531 15.83398438 6.44335938 17.12890625 C6.48267578 18.44761719 6.52199219 19.76632813 6.5625 21.125 C6.60569512 22.46485751 6.64930973 23.80470156 6.69335938 25.14453125 C6.79970981 28.42957815 6.90173808 31.71470281 7 35 C9.97 34.505 9.97 34.505 13 34 C12.68762196 36.88949684 12.35661121 38.58633099 10.4375 40.8125 C6.96022924 42.50655498 3.80274322 42.62985395 0 42 C-1.33790641 41.00612666 -2.67218122 40.0073108 -4 39 C-6.65245602 39.66096786 -6.65245602 39.66096786 -9 41 C-12.48930896 42.74465448 -16.19286977 42.56450552 -20 42 C-23.05787867 40.00301801 -24.56861144 38.64591327 -25.5078125 35.0625 C-25.85550864 31.07155301 -25.36628599 29.43750826 -22.75 26.3125 C-18.02458975 22.95677388 -12.38147039 21.04635201 -7 19 C-6.97312721 17.18757948 -6.95366285 15.37504767 -6.9375 13.5625 C-6.92009766 12.04849609 -6.92009766 12.04849609 -6.90234375 10.50390625 C-6.71387324 8.05978933 -6.71387324 8.05978933 -8 7 C-10.33297433 6.95907063 -12.66705225 6.95758277 -15 7 C-15 8.98 -15 10.96 -15 13 C-18.4019487 15.09350689 -21.05272412 15.17942163 -25 15 C-25.0625 12.4375 -25.0625 12.4375 -24 9 C-17.6681632 2.57325344 -9.23192133 -3.23214017 0 0 Z "
     fill="#DCDCDC"
     transform="translate(570,64)"
     id="path8" />
  <path
     d="M0 0 C2.43126247 2.05529405 4.46157692 3.79815385 5.89453125 6.6640625 C6.08203125 10.1640625 6.08203125 10.1640625 5.89453125 13.6640625 C3.37324769 16.18534606 2.38214112 15.95759319 -1.11328125 16.078125 C-2.09941406 16.11679688 -3.08554687 16.15546875 -4.1015625 16.1953125 C-5.65037109 16.24171875 -5.65037109 16.24171875 -7.23046875 16.2890625 C-8.27074219 16.32773438 -9.31101562 16.36640625 -10.3828125 16.40625 C-12.95685186 16.50071016 -15.5308803 16.58627464 -18.10546875 16.6640625 C-17.19410665 24.27114942 -17.19410665 24.27114942 -12.41796875 29.9765625 C-7.66311705 31.39016706 -3.62258837 31.47319297 0.70703125 29.1640625 C1.42890625 28.6690625 2.15078125 28.1740625 2.89453125 27.6640625 C3.88453125 27.6640625 4.87453125 27.6640625 5.89453125 27.6640625 C5.81883147 30.8434534 5.52685088 32.97295938 3.33984375 35.36328125 C-2.51933188 40.38369522 -6.12691295 41.01385957 -13.8984375 40.9453125 C-19.29913047 40.47168291 -21.7656458 38.07832006 -25.35546875 34.2890625 C-29.65061689 27.8463403 -29.78019987 21.21067054 -29.10546875 13.6640625 C-27.85546875 10.2265625 -27.85546875 10.2265625 -26.10546875 7.6640625 C-25.52796875 6.7978125 -24.95046875 5.9315625 -24.35546875 5.0390625 C-18.16639019 -1.49385376 -8.19328729 -5.19870919 0 0 Z "
     fill="#DBDBDB"
     transform="translate(376.10546875,65.3359375)"
     id="path9" />
  <path
     d="M0 0 C4.07694634 1.82759664 5.49320116 3.20601514 7.875 6.9375 C8.97669469 9.93655777 9.43750185 11.84998671 9 15 C7 17 7 17 4.66162109 17.22705078 C3.70852051 17.21657715 2.75541992 17.20610352 1.7734375 17.1953125 C0.2265625 17.18564453 0.2265625 17.18564453 -1.3515625 17.17578125 C-2.43179688 17.15902344 -3.51203125 17.14226562 -4.625 17.125 C-5.71296875 17.11597656 -6.8009375 17.10695313 -7.921875 17.09765625 C-10.61480152 17.07403409 -13.30729255 17.04109556 -16 17 C-15.7318571 18.6035812 -15.44906755 20.20471764 -15.16015625 21.8046875 C-15.00426025 22.69655762 -14.84836426 23.58842773 -14.68774414 24.50732422 C-13.97398567 27.09428693 -13.3622803 28.29297622 -11.4375 30.125 C-7.12010753 32.47994135 -3.82152336 32.8850215 1 32 C3.28484306 30.60042803 3.28484306 30.60042803 5 29 C6.32 29 7.64 29 9 29 C8.49430263 33.42485195 7.10058108 35.81561943 4 39 C-1.4175627 42.92773296 -7.57001703 42.79491548 -14 42 C-19.61646828 39.29205993 -23.67903065 34.80736161 -26 29 C-26.8275294 21.43899451 -27.3156797 13.87435038 -22.50390625 7.58203125 C-15.50020068 0.21449681 -10.09820692 -0.87222955 0 0 Z "
     fill="#DCDCDC"
     transform="translate(701,64)"
     id="path10" />
  <path
     d="M0 0 C4.07994115 2.03425637 6.20540528 3.74964409 8 8 C8.23272824 10.7219085 8.13939346 13.25859522 8 16 C5.49502996 17.25248502 3.79146726 17.11374406 0.9921875 17.09765625 C0.00605469 17.09443359 -0.98007813 17.09121094 -1.99609375 17.08789062 C-3.02863281 17.07951172 -4.06117188 17.07113281 -5.125 17.0625 C-6.68541016 17.05573242 -6.68541016 17.05573242 -8.27734375 17.04882812 C-10.85161962 17.03701952 -13.42578146 17.02055075 -16 17 C-15.68991116 18.60463449 -15.37683713 20.20869231 -15.0625 21.8125 C-14.88847656 22.70582031 -14.71445313 23.59914063 -14.53515625 24.51953125 C-14.02258847 27.11397171 -14.02258847 27.11397171 -13 30 C-8.91750362 32.35052822 -4.59613302 32.64327217 0 32 C2.76441969 30.59240659 2.76441969 30.59240659 5 29 C5.99 29 6.98 29 8 29 C7.92430022 32.1793909 7.63231963 34.30889688 5.4453125 36.69921875 C-0.36659805 41.67913381 -4.00370422 42.42117876 -11.7265625 42.3359375 C-16.35043352 41.86141136 -19.02362557 40.55629839 -22 37 C-25.90751814 30.92831796 -27.47410734 25.23013689 -27 18 C-25.69158382 11.99364855 -23.87164936 7.96529599 -19 4 C-18.175 3.236875 -17.35 2.47375 -16.5 1.6875 C-11.19535709 -0.87009569 -5.79105773 -0.8045149 0 0 Z "
     fill="#DBDBDB"
     transform="translate(187,64)"
     id="path11" />
  <path
     d="M0 0 C0.33 20.79 0.66 41.58 1 63 C2.32 63.66 3.64 64.32 5 65 C5 65.99 5 66.98 5 68 C-2.59 68 -10.18 68 -18 68 C-18 67.01 -18 66.02 -18 65 C-16.35 64.34 -14.7 63.68 -13 63 C-13 45.18 -13 27.36 -13 9 C-14.32 8.67 -15.64 8.34 -17 8 C-16.828125 6.140625 -16.828125 6.140625 -16 4 C-13.671875 2.734375 -13.671875 2.734375 -10.75 1.75 C-9.79609375 1.41484375 -8.8421875 1.0796875 -7.859375 0.734375 C-5 0 -5 0 0 0 Z "
     fill="#DBDBDB"
     transform="translate(757,37)"
     id="path12" />
  <path
     d="M0 0 C0.33 20.79 0.66 41.58 1 63 C2.32 63.66 3.64 64.32 5 65 C5 65.99 5 66.98 5 68 C-2.59 68 -10.18 68 -18 68 C-18 67.01 -18 66.02 -18 65 C-16.35 64.34 -14.7 63.68 -13 63 C-13 45.18 -13 27.36 -13 9 C-14.32 8.67 -15.64 8.34 -17 8 C-16.828125 6.140625 -16.828125 6.140625 -16 4 C-13.671875 2.734375 -13.671875 2.734375 -10.75 1.75 C-9.79609375 1.41484375 -8.8421875 1.0796875 -7.859375 0.734375 C-5 0 -5 0 0 0 Z "
     fill="#DBDBDB"
     transform="translate(731,37)"
     id="path13" />
  <path
     d="M0 0 C7.26 0 14.52 0 22 0 C21 4 21 4 19 6 C19.24820683 10.96413657 21.21650313 15.22755707 23.16015625 19.73046875 C24 22 24 22 24 25 C24.66 25 25.32 25 26 25 C26.20496094 24.31292969 26.40992188 23.62585938 26.62109375 22.91796875 C26.89050781 22.01691406 27.15992188 21.11585937 27.4375 20.1875 C27.70433594 19.29417969 27.97117187 18.40085937 28.24609375 17.48046875 C28.80387873 15.64526945 29.39344575 13.81966274 30 12 C30.33338596 8.45812169 30.33338596 8.45812169 30 5 C29.01 4.34 28.02 3.68 27 3 C27 2.01 27 1.02 27 0 C32.61 0 38.22 0 44 0 C44 1.32 44 2.64 44 4 C43.12601562 4.24943359 43.12601562 4.24943359 42.234375 4.50390625 C38.8066738 6.79902786 37.77280277 10.2475721 36.25 13.9375 C35.74436523 15.11868408 35.74436523 15.11868408 35.22851562 16.32373047 C34.13929061 18.87716785 33.06936087 21.43818744 32 24 C31.23536226 25.8064078 30.46973622 27.61239758 29.703125 29.41796875 C27.78736552 33.93924478 25.88932925 38.46761973 24 43 C22.68 43 21.36 43 20 43 C19.66266846 42.23445801 19.32533691 41.46891602 18.9777832 40.68017578 C17.70304309 37.79047408 16.42608457 34.90176518 15.14770508 32.01367188 C14.33182747 30.16870574 13.51842254 28.32264678 12.70507812 26.4765625 C10.307113 21.06275167 7.89410706 15.65420415 5.35546875 10.3046875 C4.99477295 9.53882324 4.63407715 8.77295898 4.26245117 7.98388672 C2.8124235 5.70523174 1.23522267 4.48504318 -1 3 C-0.67 2.01 -0.34 1.02 0 0 Z "
     fill="#DBDBDB"
     transform="translate(303,64)"
     id="path14" />
  <path
     d="M0 0 C1.20272819 2.40545638 1.10071472 3.94996953 1.0625 6.625 C1.05347656 7.44226563 1.04445313 8.25953125 1.03515625 9.1015625 C1.02355469 9.72804688 1.01195312 10.35453125 1 11 C-0.8828125 10.69140625 -0.8828125 10.69140625 -3 10 C-3.61875 8.989375 -4.2375 7.97875 -4.875 6.9375 C-5.57625 5.968125 -6.2775 4.99875 -7 4 C-10.12762267 3.41557037 -10.12762267 3.41557037 -13 4 C-14.250104 5.04850714 -14.250104 5.04850714 -14.32421875 7.37109375 C-14.27408525 10.10425465 -14.27408525 10.10425465 -12.20703125 11.66015625 C-11.41683594 12.12292969 -10.62664062 12.58570312 -9.8125 13.0625 C-8.99265625 13.56523438 -8.1728125 14.06796875 -7.328125 14.5859375 C-6.55984375 15.05257812 -5.7915625 15.51921875 -5 16 C1.70267934 20.99135696 1.70267934 20.99135696 2.3359375 25.26953125 C2.42430859 31.02248951 2.01900188 34.53444236 -2 39 C-5.63145226 41.45482787 -9.14056441 41.33241392 -13.4375 41.375 C-14.73558594 41.40335938 -16.03367187 41.43171875 -17.37109375 41.4609375 C-21.56653726 40.9280394 -23.22162471 40.17074127 -26 37 C-26.48828125 34.203125 -26.48828125 34.203125 -26.3125 31.25 C-26.26738281 30.26515625 -26.22226562 29.2803125 -26.17578125 28.265625 C-26.11777344 27.51796875 -26.05976563 26.7703125 -26 26 C-22.32777975 26.55964943 -22.32777975 26.55964943 -20.83984375 28.55859375 C-20.54207031 29.17863281 -20.24429687 29.79867187 -19.9375 30.4375 C-18.48059136 33.43260402 -17.96322421 34.02451719 -15 36 C-11.85778033 35.68493373 -11.85778033 35.68493373 -9 35 C-8.58190799 32.16848027 -8.58190799 32.16848027 -9 29 C-11.03268602 26.83656989 -11.03268602 26.83656989 -14 25 C-23.22048271 18.56001305 -23.22048271 18.56001305 -25 14 C-25.58678619 10.47928284 -25.71299047 8.17643428 -23.828125 5.06640625 C-17.50383615 -2.77375596 -9.18314099 -4.03162287 0 0 Z "
     fill="#DBDBDB"
     transform="translate(413,65)"
     id="path15" />
  <path
     d="M0 0 C0 12.54 0 25.08 0 38 C1.65 38.66 3.3 39.32 5 40 C5 40.99 5 41.98 5 43 C-2.92 43 -10.84 43 -19 43 C-19 42.01 -19 41.02 -19 40 C-17.35 39.34 -15.7 38.68 -14 38 C-13.88410838 33.72939382 -13.81285198 29.45919016 -13.75 25.1875 C-13.71648437 23.97255859 -13.68296875 22.75761719 -13.6484375 21.50585938 C-13.63554687 20.34248047 -13.62265625 19.17910156 -13.609375 17.98046875 C-13.58842773 16.90692139 -13.56748047 15.83337402 -13.54589844 14.72729492 C-13.73733151 11.85950882 -13.73733151 11.85950882 -16.02441406 10.1262207 C-16.67635742 9.75456787 -17.32830078 9.38291504 -18 9 C-17.83984375 7.13671875 -17.83984375 7.13671875 -17 5 C-14.56640625 3.76953125 -14.56640625 3.76953125 -11.5625 2.8125 C-10.57378906 2.48894531 -9.58507812 2.16539063 -8.56640625 1.83203125 C-7.71949219 1.55746094 -6.87257813 1.28289063 -6 1 C-4 0 -4 0 0 0 Z "
     fill="#DDDDDD"
     fill-rule="evenodd"
     transform="translate(296,62)"
     id="path16" />
  <path
     d="M0 0 C3.38294188 2.80300899 5.72025467 5.69236491 6.25878906 10.13476562 C6.26104492 10.88435547 6.26330078 11.63394531 6.265625 12.40625 C6.26949219 13.64568359 6.26949219 13.64568359 6.2734375 14.91015625 C6.26570313 15.76480469 6.25796875 16.61945313 6.25 17.5 C6.25773437 18.35464844 6.26546875 19.20929688 6.2734375 20.08984375 C6.27085937 20.91613281 6.26828125 21.74242188 6.265625 22.59375 C6.26336914 23.34333984 6.26111328 24.09292969 6.25878906 24.86523438 C5.96294272 27.30568756 5.27140373 28.90552368 4 31 C1.6461485 32.70451315 0.41159419 33.02057971 -2.5 32.875 C-7.0724686 31.27463599 -8.61616466 28.76767068 -10.75 24.5 C-12.95894752 18.00666526 -13.20373504 10.33290705 -10.75 3.875 C-9 1 -9 1 -7.125 -0.5 C-4.32193352 -1.15954505 -2.72293929 -0.95302875 0 0 Z "
     fill="#151516"
     transform="translate(466,69)"
     mask="url(#o-cutout)"
     id="path17" />
  <path
     d="M0 0 C2.4375 1.625 2.4375 1.625 4 4 C4.61195145 7.6717087 4.48706506 9.28813568 2.375 12.375 C-0.69477548 14.4753727 -2.34556561 14.53293835 -6 14 C-8.375 13 -8.375 13 -10 11 C-10.66300779 7.42422767 -10.65930485 4.24104443 -8.9375 1 C-5.82090489 -0.60856522 -3.43737531 -0.42213381 0 0 Z "
     fill="#DBDBDB"
     transform="translate(292,43)"
     id="path18" />
  <path
     d="M0 0 C1.9375 1.1875 1.9375 1.1875 3 3 C2.67 4.65 2.34 6.3 2 8 C-2.29 8 -6.58 8 -11 8 C-10 3 -10 3 -8.3125 1.1875 C-5.30660842 -0.35606595 -3.33699345 -0.42599916 0 0 Z "
     fill="#19191A"
     transform="translate(697,68)"
     id="path19" />
  <path
     d="M0 0 C0.66 1.98 1.32 3.96 2 6 C1 7 1 7 -1.94140625 7.09765625 C-3.73384766 7.08025391 -3.73384766 7.08025391 -5.5625 7.0625 C-7.35880859 7.04896484 -7.35880859 7.04896484 -9.19140625 7.03515625 C-10.11824219 7.02355469 -11.04507813 7.01195313 -12 7 C-11.203125 2.234375 -11.203125 2.234375 -9.375 0.125 C-6.00901647 -1.46941325 -3.56578737 -0.75430117 0 0 Z "
     fill="#181819"
     transform="translate(184,69)"
     id="path20" />
  <path
     d="M0 0 C1 1 1 1 1 7 C-3.29 7 -7.58 7 -12 7 C-11 2 -11 2 -9.375 0.125 C-5.98333624 -1.48157757 -3.58711363 -0.81217667 0 0 Z "
     fill="#171718"
     transform="translate(371,69)"
     id="path21" />
  <path
     d="M0 0 C0.36923077 6.4 0.36923077 6.4 -1.5 9.4375 C-1.995 9.953125 -2.49 10.46875 -3 11 C-6.875 10.125 -6.875 10.125 -8 9 C-8.375 6.6875 -8.375 6.6875 -8 4 C-5.22028536 1.22028536 -3.98855034 0 0 0 Z "
     fill="#1A1A1B"
     transform="translate(564,89)"
     id="path22" />
  <path
     style="fill:#000000;fill-opacity:0;stroke-width:1.34429"
     d="M 0.67214417,73.935859 V 0 H 409.3358 817.99946 V 73.935859 147.87172 H 409.3358 0.67214417 Z M 189.53726,103.64475 c 3.97205,-2.26261 7.42202,-8.627342 5.64151,-10.407849 -0.50366,-0.50366 -3.28147,-0.134984 -6.17293,0.819281 -3.06086,1.010177 -7.24662,1.361803 -10.01918,0.841665 -4.30425,-0.80748 -4.87024,-1.437967 -5.88772,-6.558735 l -1.1257,-5.665379 11.47429,-0.672144 11.47428,-0.672144 0.40123,-5.464761 c 0.32637,-4.445237 -0.27212,-6.138101 -3.20797,-9.073946 -3.09046,-3.090462 -4.73535,-3.609186 -11.44483,-3.609186 -6.91554,0 -8.41712,0.510553 -12.78766,4.347936 -8.64443,7.589916 -10.87127,18.101314 -6.05617,28.587129 2.729,5.942923 6.15219,9.448213 10.2425,10.488173 4.18959,1.0652 13.03255,-0.43325 17.46835,-2.96004 z M 335.56389,88.816743 c 4.26681,-9.929799 8.69763,-18.580107 9.84626,-19.222907 1.14861,-0.6428 2.08839,-2.348527 2.08839,-3.790505 0,-2.34982 -0.97612,-2.621779 -9.41002,-2.621779 -9.74311,0 -11.944,1.600647 -7.39359,5.377154 2.57063,2.13343 2.53479,4.168567 -0.22769,12.932203 l -2.24414,7.11921 -2.56676,-7.603015 c -2.46055,-7.28837 -2.53263,-10.32235 -0.36761,-15.473047 0.8998,-2.140656 -0.11362,-2.352505 -11.25358,-2.352505 -11.00343,0 -12.24242,0.251013 -12.24242,2.480228 0,1.364126 1.15534,3.525792 2.56741,4.803702 1.41208,1.277909 6.05866,10.170856 10.32574,19.762105 10.14396,22.800833 10.48416,22.777843 20.87801,-1.410844 z m 40.46093,15.166497 c 3.90977,-1.97272 6.42521,-5.605513 6.42521,-9.27925 0,-1.798102 -0.75751,-2.069491 -3.69679,-1.324398 -9.45966,2.397986 -13.13072,2.320726 -15.52668,-0.326774 -1.30162,-1.438269 -2.91095,-4.513178 -3.5763,-6.833132 l -1.20974,-4.218097 h 9.87838 c 13.01648,0 14.13113,-0.523046 14.13113,-6.630937 0,-5.673878 -3.55339,-9.880283 -10.34709,-12.248578 -9.3673,-3.26546 -23.46533,5.391456 -25.37727,15.582953 -1.31901,7.030881 0.0988,16.530019 3.07311,20.589805 5.59863,7.641798 16.50756,9.591978 26.22604,4.688408 z m 30.95633,2.14545 c 5.68502,-1.57882 9.07609,-6.583321 9.07609,-13.394413 0,-6.014057 -1.73683,-8.497396 -9.36782,-13.394191 -4.21718,-2.706153 -6.76364,-5.29968 -6.76364,-6.888652 0,-3.737921 5.12063,-3.237147 8.3059,0.812281 3.97898,5.058443 6.48128,4.343484 6.48128,-1.851831 0,-6.330746 -2.17637,-8.371913 -9.74683,-9.141364 -4.14994,-0.421793 -6.88755,0.157399 -10.00839,2.117467 -11.36452,7.13759 -10.78232,16.201399 1.58987,24.751745 4.40298,3.04286 7.41104,6.11661 7.41104,7.572871 0,3.367887 -5.08159,4.491407 -7.49335,1.656755 -9.0416,-10.626975 -10.26669,-10.788006 -9.71658,-1.27719 0.34341,5.937172 0.92667,7.287012 3.76705,8.718062 4.10301,2.06719 9.7736,2.17686 16.46538,0.31846 z m 69.62741,-2.66003 c 5.04518,-3.592487 9.35168,-12.910876 9.35168,-20.235152 0,-7.196233 -4.67264,-14.86872 -11.12894,-18.273753 -5.40418,-2.850152 -16.46155,-2.873138 -21.92942,-0.04559 -4.92558,2.547118 -10.92868,10.846105 -12.10691,16.737204 -2.00066,10.003365 4.40915,21.743221 13.375,24.496931 6.1105,1.87673 18.04056,0.45203 22.43859,-2.67964 z m 83.96529,2.14227 c 4.02227,-1.68061 5.12956,-1.68007 8.50573,0.004 5.84421,2.91548 11.83332,1.23999 13.59102,-3.80215 1.8654,-5.35109 1.93299,-5.2035 -1.93803,-4.231935 l -3.36072,0.843488 V 84.857106 c 0,-12.902229 -0.18126,-13.770129 -3.6968,-17.70225 -6.39912,-7.157386 -18.47408,-5.259731 -26.38956,4.147284 -4.66707,5.5465 -4.54339,8.010873 0.40206,8.010873 5.99994,0 8.17568,-1.315276 8.17568,-4.94233 0,-2.664088 0.59052,-3.226526 3.02465,-2.880825 2.4312,0.345284 3.10666,1.421144 3.44263,5.483314 0.40377,4.882058 0.19825,5.14773 -6.0493,7.820195 -11.36109,4.859835 -14.88506,10.43515 -11.08441,17.536753 2.6506,4.9527 8.42635,6.18499 15.37705,3.28081 z m 94.90895,0.56088 c 8.99218,-1.70534 11.6821,-4.31826 12.79359,-12.427392 0.79777,-5.820384 0.63439,-6.365675 -1.90725,-6.365675 -1.55737,0 -4.0489,1.78235 -5.66585,4.053149 -8.58842,12.061308 -26.12714,10.248718 -32.88647,-3.398746 -1.6705,-3.372833 -2.81078,-8.847435 -3.07623,-14.769431 -0.35238,-7.860827 0.0846,-10.274463 2.65442,-14.660786 3.97643,-6.787297 8.7274,-10.230677 15.33928,-11.117517 7.63853,-1.024542 14.71716,2.294895 17.54658,8.228241 1.37495,2.883309 3.24691,4.779323 4.71869,4.779323 2.04944,0 2.43631,-1.128721 2.41902,-7.057514 -0.0241,-8.272377 -0.76443,-9.761043 -5.80751,-11.678423 -5.57775,-2.120657 -23.58858,-1.729508 -31.73312,0.689161 -8.8872,2.639213 -19.31272,12.460271 -21.46827,20.223562 -3.27684,11.801658 -1.10434,24.650938 5.42529,32.087769 9.62317,10.960179 23.69965,14.818079 41.64783,11.414279 z m 44.62529,-0.063 c 4.93051,-1.36917 10.33069,-7.463345 10.34327,-11.672534 0.006,-1.99352 -6.19001,-2.275347 -7.38855,-0.336072 -1.35264,2.188603 -9.55698,1.533039 -12.61776,-1.008216 -1.55841,-1.293877 -3.20844,-4.293943 -3.66676,-6.666814 l -0.83332,-4.314308 11.91965,-0.390701 11.91963,-0.3907 0.41847,-5.062087 c 0.3419,-4.135812 -0.31563,-5.79619 -3.59339,-9.073946 -3.34834,-3.348335 -5.0885,-4.01186 -10.52161,-4.01186 -7.941,0 -14.81563,3.422073 -18.90246,9.409339 -2.33553,3.421563 -3.02465,6.331364 -3.02465,12.771419 0,9.862271 3.40223,16.11889 10.78109,19.82616 5.4105,2.71832 8.10316,2.88172 15.16639,0.92032 z M 90.739463,104.11375 c 0,-1.14676 -2.130847,-2.97535 -4.735215,-4.06352 l -4.735217,-1.978504 0.36628,-24.502601 0.366278,-24.5026 4.554951,-0.435118 c 6.769123,-0.64663 10.262578,0.645858 11.98937,4.435751 0.887565,1.947993 2.66811,3.392953 4.18096,3.392953 2.09636,0 2.82237,-1.24927 3.55145,-6.111122 0.89998,-6.001489 0.96458,-6.06781 3.60108,-3.696793 2.5688,2.310138 2.64352,3.487565 1.73136,27.283663 -0.70535,18.400826 -1.44574,25.42134 -2.84657,26.991621 -3.93972,4.41627 -2.28437,5.2713 10.20533,5.2713 10.97447,0 12.09859,-0.23644 12.09859,-2.54475 0,-1.39962 -0.90739,-2.89296 -2.01643,-3.31853 -1.59722,-0.612917 -2.01643,-3.437534 -2.01643,-13.586711 v -12.81293 h 4.48923 c 5.7721,0 7.60936,3.745144 7.60936,15.511177 0,7.207357 -0.45181,8.945398 -2.68857,10.342275 -1.47872,0.923469 -2.68858,2.743389 -2.68858,4.044259 0,2.08222 1.44756,2.36521 12.0986,2.36521 12.89336,0 14.7887,-1.18165 9.52949,-5.94117 -2.14669,-1.942732 -2.64398,-4.611991 -3.02464,-16.234916 -0.40981,-12.513273 -0.78083,-14.255823 -3.6952,-17.354949 -4.3841,-4.662043 -11.4201,-5.882474 -16.52578,-2.866478 -2.17017,1.281951 -4.30554,1.971041 -4.74527,1.531312 -0.43973,-0.439729 -1.08207,-7.152896 -1.42743,-14.91815 -0.70822,-15.924196 -0.91601,-16.139277 -11.86901,-12.285479 -3.81975,1.343975 -5.82197,1.445524 -7.503,0.380541 -1.66371,-1.054008 -3.53433,-1.003718 -6.816884,0.183268 -2.818851,1.019309 -12.355379,1.635891 -25.301964,1.635891 -16.798745,0 -21.361226,-0.408517 -23.823425,-2.133107 -3.693603,-2.5871 -6.442651,-0.899434 -7.457943,4.5785 -2.396748,12.93148 -2.391095,13.686068 0.102516,13.686068 1.329783,0 4.130654,-1.81479 6.224162,-4.032865 2.093508,-2.218076 4.586878,-4.032865 5.540824,-4.032865 0.953946,0 3.624852,-0.378082 5.935348,-0.840181 l 4.200901,-0.84018 v 25.493736 25.493737 l -3.277773,1.493453 c -1.802775,0.821394 -3.941314,2.733284 -4.752307,4.248644 -1.451363,2.7119 -1.199188,2.75519 16.048513,2.75519 14.936063,0 17.523045,-0.30782 17.523045,-2.08503 z M 274.3097,96.507646 c 1.28254,-7.824219 1.20083,-9.125501 -0.61688,-9.823023 -1.15241,-0.442218 -2.35527,-0.01325 -2.67305,0.953259 -0.31776,0.966511 -2.56697,3.752981 -4.99821,6.192154 -4.1898,4.203439 -4.86247,4.413885 -12.89077,4.032865 l -8.47031,-0.401996 -0.36688,-23.810663 -0.36689,-23.810661 4.06368,-2.101411 c 2.23503,-1.155775 4.06368,-2.993269 4.06368,-4.08332 0,-1.63625 -2.81347,-1.981911 -16.13146,-1.981911 -12.81199,0 -16.13147,0.381374 -16.13147,1.853343 0,1.019338 1.81479,2.605054 4.03287,3.52381 l 4.03286,1.670468 V 73.543574 98.36659 l -4.03286,1.522237 c -2.42569,0.915593 -4.03287,2.487563 -4.03287,3.944513 0,2.26397 1.7332,2.39846 26.52009,2.05779 l 26.52008,-0.36449 z m 27.48303,7.093144 c 0,-1.42889 -1.20986,-2.98198 -2.68857,-3.45131 -2.52069,-0.800032 -2.68858,-2.033952 -2.68858,-19.759769 V 61.483262 l -5.21906,0.700023 c -10.53769,1.4134 -17.2896,7.565011 -11.72266,10.680425 1.73779,0.972513 2.15455,3.645596 2.15455,13.819097 0,11.432721 -0.25165,12.693227 -2.68858,13.466673 -1.47872,0.46933 -2.68857,2.02242 -2.68857,3.45131 0,2.38548 1.04462,2.59799 12.77073,2.59799 11.72612,0 12.77074,-0.21251 12.77074,-2.59799 z m 213.74185,0.0774 c 0,-1.72517 -1.2726,-2.77506 -4.03286,-3.32711 l -4.03287,-0.806578 V 85.395917 71.247282 h 6.60942 c 4.07874,0 6.83384,-0.643395 7.19556,-1.68036 1.27721,-3.661496 -0.73682,-5.041081 -7.35936,-5.041081 h -6.7096 l 0.93018,-8.401802 c 0.60842,-5.495508 1.82575,-9.328048 3.51916,-11.079483 2.58237,-2.670848 2.60623,-2.667976 9.35404,1.125152 3.72079,2.091557 7.64093,3.46673 8.71142,3.055941 2.60241,-0.998631 2.49246,-8.158863 -0.16608,-10.81741 -3.16104,-3.161043 -17.49604,-2.851166 -22.98692,0.496904 -5.24611,3.198823 -11.21216,13.076389 -12.15817,20.129429 -0.48973,3.651125 -1.47947,5.464552 -3.23275,5.923045 -3.5251,0.921833 -3.38715,6.289665 0.16164,6.289665 2.51678,0 2.68858,0.896193 2.68858,14.024439 0,12.843807 -0.22634,14.096276 -2.68858,14.877759 -1.47872,0.46933 -2.68858,2.02242 -2.68858,3.45131 0,2.39459 1.05245,2.59799 13.44289,2.59799 12.24796,0 13.44288,-0.22405 13.44288,-2.52054 z m 220.46329,-0.003 c 0,-1.38818 -0.90739,-3.27704 -2.01643,-4.197462 -1.6855,-1.398834 -2.01643,-6.750874 -2.01643,-32.610243 V 35.930343 l -6.29805,0.863243 c -9.84803,1.349823 -16.34146,7.158899 -10.50556,9.398347 1.6976,0.651432 2.01643,4.945168 2.01643,27.155444 0,25.251112 -0.11522,26.411793 -2.68857,27.084743 -1.48802,0.38912 -2.68858,1.83363 -2.68858,3.23487 0,2.29199 1.14594,2.53179 12.0986,2.53179 10.9394,0 12.09859,-0.24183 12.09859,-2.52398 z m 26.88577,0.31967 c 0,-1.21237 -0.86503,-2.87592 -1.92227,-3.69679 -1.51752,-1.178232 -2.12311,-8.10537 -2.87613,-32.899036 l -0.95385,-31.406549 -4.85354,0.687944 c -8.01177,1.135597 -12.24711,3.315638 -12.24711,6.303916 0,1.497017 0.60493,2.721849 1.34428,2.721849 0.85146,0 1.34429,9.872178 1.34429,26.927957 0,22.695869 -0.31691,27.049566 -2.01643,27.701739 -1.10904,0.42557 -2.01643,1.91891 -2.01643,3.31853 0,2.30831 1.12412,2.54475 12.09859,2.54475 10.31642,0 12.0986,-0.32471 12.0986,-2.20431 z M 293.81538,56.412813 c 5.42283,-2.902212 1.87474,-14.739874 -4.41797,-14.739874 -5.24842,0 -7.769,2.544973 -7.769,7.84417 0,2.783549 0.72591,5.786914 1.61314,6.674144 1.98178,1.981771 7.08504,2.088704 10.57383,0.22156 z"
     id="path23" />
  <path
     style="fill:#000000;fill-opacity:0;stroke-width:1.34429"
     d="M 0.67214417,73.935859 V 0 H 409.3358 817.99946 V 73.935859 147.87172 H 409.3358 0.67214417 Z M 189.53726,103.64475 c 3.97205,-2.26261 7.42202,-8.627342 5.64151,-10.407849 -0.50366,-0.50366 -3.28147,-0.134984 -6.17293,0.819281 -3.06086,1.010177 -7.24662,1.361803 -10.01918,0.841665 -4.30425,-0.80748 -4.87024,-1.437967 -5.88772,-6.558735 l -1.1257,-5.665379 11.47429,-0.672144 11.47428,-0.672144 0.40123,-5.464761 c 0.32637,-4.445237 -0.27212,-6.138101 -3.20797,-9.073946 -3.09046,-3.090462 -4.73535,-3.609186 -11.44483,-3.609186 -6.91554,0 -8.41712,0.510553 -12.78766,4.347936 -8.64443,7.589916 -10.87127,18.101314 -6.05617,28.587129 2.729,5.942923 6.15219,9.448213 10.2425,10.488173 4.18959,1.0652 13.03255,-0.43325 17.46835,-2.96004 z M 335.56389,88.816743 c 4.26681,-9.929799 8.69763,-18.580107 9.84626,-19.222907 1.14861,-0.6428 2.08839,-2.348527 2.08839,-3.790505 0,-2.34982 -0.97612,-2.621779 -9.41002,-2.621779 -9.74311,0 -11.944,1.600647 -7.39359,5.377154 2.57063,2.13343 2.53479,4.168567 -0.22769,12.932203 l -2.24414,7.11921 -2.56676,-7.603015 c -2.46055,-7.28837 -2.53263,-10.32235 -0.36761,-15.473047 0.8998,-2.140656 -0.11362,-2.352505 -11.25358,-2.352505 -11.00343,0 -12.24242,0.251013 -12.24242,2.480228 0,1.364126 1.15534,3.525792 2.56741,4.803702 1.41208,1.277909 6.05866,10.170856 10.32574,19.762105 10.14396,22.800833 10.48416,22.777843 20.87801,-1.410844 z m 40.46093,15.166497 c 3.90977,-1.97272 6.42521,-5.605513 6.42521,-9.27925 0,-1.798102 -0.75751,-2.069491 -3.69679,-1.324398 -9.45966,2.397986 -13.13072,2.320726 -15.52668,-0.326774 -1.30162,-1.438269 -2.91095,-4.513178 -3.5763,-6.833132 l -1.20974,-4.218097 h 9.87838 c 13.01648,0 14.13113,-0.523046 14.13113,-6.630937 0,-5.673878 -3.55339,-9.880283 -10.34709,-12.248578 -9.3673,-3.26546 -23.46533,5.391456 -25.37727,15.582953 -1.31901,7.030881 0.0988,16.530019 3.07311,20.589805 5.59863,7.641798 16.50756,9.591978 26.22604,4.688408 z m 30.95633,2.14545 c 5.68502,-1.57882 9.07609,-6.583321 9.07609,-13.394413 0,-6.014057 -1.73683,-8.497396 -9.36782,-13.394191 -4.21718,-2.706153 -6.76364,-5.29968 -6.76364,-6.888652 0,-3.737921 5.12063,-3.237147 8.3059,0.812281 3.97898,5.058443 6.48128,4.343484 6.48128,-1.851831 0,-6.330746 -2.17637,-8.371913 -9.74683,-9.141364 -4.14994,-0.421793 -6.88755,0.157399 -10.00839,2.117467 -11.36452,7.13759 -10.78232,16.201399 1.58987,24.751745 4.40298,3.04286 7.41104,6.11661 7.41104,7.572871 0,3.367887 -5.08159,4.491407 -7.49335,1.656755 -9.0416,-10.626975 -10.26669,-10.788006 -9.71658,-1.27719 0.34341,5.937172 0.92667,7.287012 3.76705,8.718062 4.10301,2.06719 9.7736,2.17686 16.46538,0.31846 z m 69.62741,-2.66003 c 5.04518,-3.592487 9.35168,-12.910876 9.35168,-20.235152 0,-7.196233 -4.67264,-14.86872 -11.12894,-18.273753 -5.40418,-2.850152 -16.46155,-2.873138 -21.92942,-0.04559 -4.92558,2.547118 -10.92868,10.846105 -12.10691,16.737204 -2.00066,10.003365 4.40915,21.743221 13.375,24.496931 6.1105,1.87673 18.04056,0.45203 22.43859,-2.67964 z m 83.96529,2.14227 c 4.02227,-1.68061 5.12956,-1.68007 8.50573,0.004 5.84421,2.91548 11.83332,1.23999 13.59102,-3.80215 1.8654,-5.35109 1.93299,-5.2035 -1.93803,-4.231935 l -3.36072,0.843488 V 84.857106 c 0,-12.902229 -0.18126,-13.770129 -3.6968,-17.70225 -6.39912,-7.157386 -18.47408,-5.259731 -26.38956,4.147284 -4.66707,5.5465 -4.54339,8.010873 0.40206,8.010873 5.99994,0 8.17568,-1.315276 8.17568,-4.94233 0,-2.664088 0.59052,-3.226526 3.02465,-2.880825 2.4312,0.345284 3.10666,1.421144 3.44263,5.483314 0.40377,4.882058 0.19825,5.14773 -6.0493,7.820195 -11.36109,4.859835 -14.88506,10.43515 -11.08441,17.536753 2.6506,4.9527 8.42635,6.18499 15.37705,3.28081 z m 94.90895,0.56088 c 8.99218,-1.70534 11.6821,-4.31826 12.79359,-12.427392 0.79777,-5.820384 0.63439,-6.365675 -1.90725,-6.365675 -1.55737,0 -4.0489,1.78235 -5.66585,4.053149 -8.58842,12.061308 -26.12714,10.248718 -32.88647,-3.398746 -1.6705,-3.372833 -2.81078,-8.847435 -3.07623,-14.769431 -0.35238,-7.860827 0.0846,-10.274463 2.65442,-14.660786 3.97643,-6.787297 8.7274,-10.230677 15.33928,-11.117517 7.63853,-1.024542 14.71716,2.294895 17.54658,8.228241 1.37495,2.883309 3.24691,4.779323 4.71869,4.779323 2.04944,0 2.43631,-1.128721 2.41902,-7.057514 -0.0241,-8.272377 -0.76443,-9.761043 -5.80751,-11.678423 -5.57775,-2.120657 -23.58858,-1.729508 -31.73312,0.689161 -8.8872,2.639213 -19.31272,12.460271 -21.46827,20.223562 -3.27684,11.801658 -1.10434,24.650938 5.42529,32.087769 9.62317,10.960179 23.69965,14.818079 41.64783,11.414279 z m 44.62529,-0.063 c 4.93051,-1.36917 10.33069,-7.463345 10.34327,-11.672534 0.006,-1.99352 -6.19001,-2.275347 -7.38855,-0.336072 -1.35264,2.188603 -9.55698,1.533039 -12.61776,-1.008216 -1.55841,-1.293877 -3.20844,-4.293943 -3.66676,-6.666814 l -0.83332,-4.314308 11.91965,-0.390701 11.91963,-0.3907 0.41847,-5.062087 c 0.3419,-4.135812 -0.31563,-5.79619 -3.59339,-9.073946 -3.34834,-3.348335 -5.0885,-4.01186 -10.52161,-4.01186 -7.941,0 -14.81563,3.422073 -18.90246,9.409339 -2.33553,3.421563 -3.02465,6.331364 -3.02465,12.771419 0,9.862271 3.40223,16.11889 10.78109,19.82616 5.4105,2.71832 8.10316,2.88172 15.16639,0.92032 z M 90.739463,104.11375 c 0,-1.14676 -2.130847,-2.97535 -4.735215,-4.06352 l -4.735217,-1.978504 0.36628,-24.502601 0.366278,-24.5026 4.554951,-0.435118 c 6.769123,-0.64663 10.262578,0.645858 11.98937,4.435751 0.887565,1.947993 2.66811,3.392953 4.18096,3.392953 2.09636,0 2.82237,-1.24927 3.55145,-6.111122 0.89998,-6.001489 0.96458,-6.06781 3.60108,-3.696793 2.5688,2.310138 2.64352,3.487565 1.73136,27.283663 -0.70535,18.400826 -1.44574,25.42134 -2.84657,26.991621 -3.93972,4.41627 -2.28437,5.2713 10.20533,5.2713 10.97447,0 12.09859,-0.23644 12.09859,-2.54475 0,-1.39962 -0.90739,-2.89296 -2.01643,-3.31853 -1.59722,-0.612917 -2.01643,-3.437534 -2.01643,-13.586711 v -12.81293 h 4.48923 c 5.7721,0 7.60936,3.745144 7.60936,15.511177 0,7.207357 -0.45181,8.945398 -2.68857,10.342275 -1.47872,0.923469 -2.68858,2.743389 -2.68858,4.044259 0,2.08222 1.44756,2.36521 12.0986,2.36521 12.89336,0 14.7887,-1.18165 9.52949,-5.94117 -2.14669,-1.942732 -2.64398,-4.611991 -3.02464,-16.234916 -0.40981,-12.513273 -0.78083,-14.255823 -3.6952,-17.354949 -4.3841,-4.662043 -11.4201,-5.882474 -16.52578,-2.866478 -2.17017,1.281951 -4.30554,1.971041 -4.74527,1.531312 -0.43973,-0.439729 -1.08207,-7.152896 -1.42743,-14.91815 -0.70822,-15.924196 -0.91601,-16.139277 -11.86901,-12.285479 -3.81975,1.343975 -5.82197,1.445524 -7.503,0.380541 -1.66371,-1.054008 -3.53433,-1.003718 -6.816884,0.183268 -2.818851,1.019309 -12.355379,1.635891 -25.301964,1.635891 -16.798745,0 -21.361226,-0.408517 -23.823425,-2.133107 -3.693603,-2.5871 -6.442651,-0.899434 -7.457943,4.5785 -2.396748,12.93148 -2.391095,13.686068 0.102516,13.686068 1.329783,0 4.130654,-1.81479 6.224162,-4.032865 2.093508,-2.218076 4.586878,-4.032865 5.540824,-4.032865 0.953946,0 3.624852,-0.378082 5.935348,-0.840181 l 4.200901,-0.84018 v 25.493736 25.493737 l -3.277773,1.493453 c -1.802775,0.821394 -3.941314,2.733284 -4.752307,4.248644 -1.451363,2.7119 -1.199188,2.75519 16.048513,2.75519 14.936063,0 17.523045,-0.30782 17.523045,-2.08503 z M 274.3097,96.507646 c 1.28254,-7.824219 1.20083,-9.125501 -0.61688,-9.823023 -1.15241,-0.442218 -2.35527,-0.01325 -2.67305,0.953259 -0.31776,0.966511 -2.56697,3.752981 -4.99821,6.192154 -4.1898,4.203439 -4.86247,4.413885 -12.89077,4.032865 l -8.47031,-0.401996 -0.36688,-23.810663 -0.36689,-23.810661 4.06368,-2.101411 c 2.23503,-1.155775 4.06368,-2.993269 4.06368,-4.08332 0,-1.63625 -2.81347,-1.981911 -16.13146,-1.981911 -12.81199,0 -16.13147,0.381374 -16.13147,1.853343 0,1.019338 1.81479,2.605054 4.03287,3.52381 l 4.03286,1.670468 V 73.543574 98.36659 l -4.03286,1.522237 c -2.42569,0.915593 -4.03287,2.487563 -4.03287,3.944513 0,2.26397 1.7332,2.39846 26.52009,2.05779 l 26.52008,-0.36449 z m 27.48303,7.093144 c 0,-1.42889 -1.20986,-2.98198 -2.68857,-3.45131 -2.52069,-0.800032 -2.68858,-2.033952 -2.68858,-19.759769 V 61.483262 l -5.21906,0.700023 c -10.53769,1.4134 -17.2896,7.565011 -11.72266,10.680425 1.73779,0.972513 2.15455,3.645596 2.15455,13.819097 0,11.432721 -0.25165,12.693227 -2.68858,13.466673 -1.47872,0.46933 -2.68857,2.02242 -2.68857,3.45131 0,2.38548 1.04462,2.59799 12.77073,2.59799 11.72612,0 12.77074,-0.21251 12.77074,-2.59799 z m 213.74185,0.0774 c 0,-1.72517 -1.2726,-2.77506 -4.03286,-3.32711 l -4.03287,-0.806578 V 85.395917 71.247282 h 6.60942 c 4.07874,0 6.83384,-0.643395 7.19556,-1.68036 1.27721,-3.661496 -0.73682,-5.041081 -7.35936,-5.041081 h -6.7096 l 0.93018,-8.401802 c 0.60842,-5.495508 1.82575,-9.328048 3.51916,-11.079483 2.58237,-2.670848 2.60623,-2.667976 9.35404,1.125152 3.72079,2.091557 7.64093,3.46673 8.71142,3.055941 2.60241,-0.998631 2.49246,-8.158863 -0.16608,-10.81741 -3.16104,-3.161043 -17.49604,-2.851166 -22.98692,0.496904 -5.24611,3.198823 -11.21216,13.076389 -12.15817,20.129429 -0.48973,3.651125 -1.47947,5.464552 -3.23275,5.923045 -3.5251,0.921833 -3.38715,6.289665 0.16164,6.289665 2.51678,0 2.68858,0.896193 2.68858,14.024439 0,12.843807 -0.22634,14.096276 -2.68858,14.877759 -1.47872,0.46933 -2.68858,2.02242 -2.68858,3.45131 0,2.39459 1.05245,2.59799 13.44289,2.59799 12.24796,0 13.44288,-0.22405 13.44288,-2.52054 z m 220.46329,-0.003 c 0,-1.38818 -0.90739,-3.27704 -2.01643,-4.197462 -1.6855,-1.398834 -2.01643,-6.750874 -2.01643,-32.610243 V 35.930343 l -6.29805,0.863243 c -9.84803,1.349823 -16.34146,7.158899 -10.50556,9.398347 1.6976,0.651432 2.01643,4.945168 2.01643,27.155444 0,25.251112 -0.11522,26.411793 -2.68857,27.084743 -1.48802,0.38912 -2.68858,1.83363 -2.68858,3.23487 0,2.29199 1.14594,2.53179 12.0986,2.53179 10.9394,0 12.09859,-0.24183 12.09859,-2.52398 z m 26.88577,0.31967 c 0,-1.21237 -0.86503,-2.87592 -1.92227,-3.69679 -1.51752,-1.178232 -2.12311,-8.10537 -2.87613,-32.899036 l -0.95385,-31.406549 -4.85354,0.687944 c -8.01177,1.135597 -12.24711,3.315638 -12.24711,6.303916 0,1.497017 0.60493,2.721849 1.34428,2.721849 0.85146,0 1.34429,9.872178 1.34429,26.927957 0,22.695869 -0.31691,27.049566 -2.01643,27.701739 -1.10904,0.42557 -2.01643,1.91891 -2.01643,3.31853 0,2.30831 1.12412,2.54475 12.09859,2.54475 10.31642,0 12.0986,-0.32471 12.0986,-2.20431 z M 293.81538,56.412813 c 5.42283,-2.902212 1.87474,-14.739874 -4.41797,-14.739874 -5.24842,0 -7.769,2.544973 -7.769,7.84417 0,2.783549 0.72591,5.786914 1.61314,6.674144 1.98178,1.981771 7.08504,2.088704 10.57383,0.22156 z"
     id="path24" />
  <path
     style="fill:#000000;fill-opacity:0;stroke-width:1.34429"
     d="m 60.492976,102.16591 c 1.33822,-1.47871 3.246767,-2.688572 4.241213,-2.688572 1.453716,0 1.808084,-5.217372 1.808084,-26.620531 V 46.236275 l -7.377394,0.812035 c -5.481452,0.603347 -8.350509,1.744339 -11.163936,4.439774 -2.082599,1.995256 -4.098688,3.627738 -4.480198,3.627738 -0.895524,0 0.814266,-12.03165 2.155984,-15.171484 0.948473,-2.219577 1.270545,-2.240441 4.267926,-0.276481 2.722338,1.783744 6.952227,2.041978 26.387359,1.61094 12.729928,-0.282328 24.714756,-0.966602 26.632956,-1.520608 l 3.48763,-1.007285 -1.03615,7.635382 c -0.56988,4.199461 -1.41511,8.014351 -1.8783,8.477536 -0.46318,0.463184 -2.36635,-1.10542 -4.229272,-3.485788 -3.05823,-3.907694 -4.081623,-4.327942 -10.539454,-4.327942 -5.281897,0 -7.365718,0.556078 -7.968299,2.126379 -0.448783,1.169508 -0.815968,12.892247 -0.815968,26.050533 v 23.924154 l 4.061708,1.682412 c 7.654184,3.17047 5.488351,4.02092 -10.240019,4.02092 -15.661849,0 -15.733842,-0.0145 -13.31387,-2.68858 z"
     id="path25" />
  <path
     style="fill:#000000;fill-opacity:0;stroke-width:1.34429"
     d="m 60.492976,102.16591 c 1.33822,-1.47871 3.246767,-2.688572 4.241213,-2.688572 1.453716,0 1.808084,-5.217372 1.808084,-26.620531 V 46.236275 l -7.377394,0.812035 c -5.481452,0.603347 -8.350509,1.744339 -11.163936,4.439774 -2.082599,1.995256 -4.098688,3.627738 -4.480198,3.627738 -0.895524,0 0.814266,-12.03165 2.155984,-15.171484 0.948473,-2.219577 1.270545,-2.240441 4.267926,-0.276481 2.722338,1.783744 6.952227,2.041978 26.387359,1.61094 12.729928,-0.282328 24.714756,-0.966602 26.632956,-1.520608 l 3.48763,-1.007285 -1.03615,7.635382 c -0.56988,4.199461 -1.41511,8.014351 -1.8783,8.477536 -0.46318,0.463184 -2.36635,-1.10542 -4.229272,-3.485788 -3.05823,-3.907694 -4.081623,-4.327942 -10.539454,-4.327942 -5.281897,0 -7.365718,0.556078 -7.968299,2.126379 -0.448783,1.169508 -0.815968,12.892247 -0.815968,26.050533 v 23.924154 l 4.061708,1.682412 c 7.654184,3.17047 5.488351,4.02092 -10.240019,4.02092 -15.661849,0 -15.733842,-0.0145 -13.31387,-2.68858 z"
     id="path26" />
  <path
     style="fill:none;fill-opacity:0;stroke-width:1.34429"
     d="m 60.492976,102.16591 c 1.33822,-1.47871 3.246767,-2.688572 4.241213,-2.688572 1.453716,0 1.808084,-5.217372 1.808084,-26.620531 V 46.236275 l -7.377394,0.812035 c -5.481452,0.603347 -8.350509,1.744339 -11.163936,4.439774 -2.082599,1.995256 -4.098688,3.627738 -4.480198,3.627738 -0.895524,0 0.814266,-12.03165 2.155984,-15.171484 0.948473,-2.219577 1.270545,-2.240441 4.267926,-0.276481 2.722338,1.783744 6.952227,2.041978 26.387359,1.61094 12.729928,-0.282328 24.714756,-0.966602 26.632956,-1.520608 l 3.48763,-1.007285 -1.03615,7.635382 c -0.56988,4.199461 -1.41511,8.014351 -1.8783,8.477536 -0.46318,0.463184 -2.36635,-1.10542 -4.229272,-3.485788 -3.05823,-3.907694 -4.081623,-4.327942 -10.539454,-4.327942 -5.281897,0 -7.365718,0.556078 -7.968299,2.126379 -0.448783,1.169508 -0.815968,12.892247 -0.815968,26.050533 v 23.924154 l 4.061708,1.682412 c 7.654184,3.17047 5.488351,4.02092 -10.240019,4.02092 -15.661849,0 -15.733842,-0.0145 -13.31387,-2.68858 z"
     id="path27" />
  <path
     style="fill:none;fill-opacity:0;stroke-width:1.34429"
     d="M 0.67214417,73.935859 V 0 H 409.3358 817.99946 V 73.935859 147.87172 H 409.3358 0.67214417 Z M 189.53726,103.64475 c 3.97205,-2.26261 7.42202,-8.627342 5.64151,-10.407849 -0.50366,-0.50366 -3.28147,-0.134984 -6.17293,0.819281 -3.06086,1.010177 -7.24662,1.361803 -10.01918,0.841665 -4.30425,-0.80748 -4.87024,-1.437967 -5.88772,-6.558735 l -1.1257,-5.665379 11.47429,-0.672144 11.47428,-0.672144 0.40123,-5.464761 c 0.32637,-4.445237 -0.27212,-6.138101 -3.20797,-9.073946 -3.09046,-3.090462 -4.73535,-3.609186 -11.44483,-3.609186 -6.91554,0 -8.41712,0.510553 -12.78766,4.347936 -8.64443,7.589916 -10.87127,18.101314 -6.05617,28.587129 2.729,5.942923 6.15219,9.448213 10.2425,10.488173 4.18959,1.0652 13.03255,-0.43325 17.46835,-2.96004 z M 335.56389,88.816743 c 4.26681,-9.929799 8.69763,-18.580107 9.84626,-19.222907 1.14861,-0.6428 2.08839,-2.348527 2.08839,-3.790505 0,-2.34982 -0.97612,-2.621779 -9.41002,-2.621779 -9.74311,0 -11.944,1.600647 -7.39359,5.377154 2.57063,2.13343 2.53479,4.168567 -0.22769,12.932203 l -2.24414,7.11921 -2.56676,-7.603015 c -2.46055,-7.28837 -2.53263,-10.32235 -0.36761,-15.473047 0.8998,-2.140656 -0.11362,-2.352505 -11.25358,-2.352505 -11.00343,0 -12.24242,0.251013 -12.24242,2.480228 0,1.364126 1.15534,3.525792 2.56741,4.803702 1.41208,1.277909 6.05866,10.170856 10.32574,19.762105 10.14396,22.800833 10.48416,22.777843 20.87801,-1.410844 z m 40.46093,15.166497 c 3.90977,-1.97272 6.42521,-5.605513 6.42521,-9.27925 0,-1.798102 -0.75751,-2.069491 -3.69679,-1.324398 -9.45966,2.397986 -13.13072,2.320726 -15.52668,-0.326774 -1.30162,-1.438269 -2.91095,-4.513178 -3.5763,-6.833132 l -1.20974,-4.218097 h 9.87838 c 13.01648,0 14.13113,-0.523046 14.13113,-6.630937 0,-5.673878 -3.55339,-9.880283 -10.34709,-12.248578 -9.3673,-3.26546 -23.46533,5.391456 -25.37727,15.582953 -1.31901,7.030881 0.0988,16.530019 3.07311,20.589805 5.59863,7.641798 16.50756,9.591978 26.22604,4.688408 z m 30.95633,2.14545 c 5.68502,-1.57882 9.07609,-6.583321 9.07609,-13.394413 0,-6.014057 -1.73683,-8.497396 -9.36782,-13.394191 -4.21718,-2.706153 -6.76364,-5.29968 -6.76364,-6.888652 0,-3.737921 5.12063,-3.237147 8.3059,0.812281 3.97898,5.058443 6.48128,4.343484 6.48128,-1.851831 0,-6.330746 -2.17637,-8.371913 -9.74683,-9.141364 -4.14994,-0.421793 -6.88755,0.157399 -10.00839,2.117467 -11.36452,7.13759 -10.78232,16.201399 1.58987,24.751745 4.40298,3.04286 7.41104,6.11661 7.41104,7.572871 0,3.367887 -5.08159,4.491407 -7.49335,1.656755 -9.0416,-10.626975 -10.26669,-10.788006 -9.71658,-1.27719 0.34341,5.937172 0.92667,7.287012 3.76705,8.718062 4.10301,2.06719 9.7736,2.17686 16.46538,0.31846 z m 69.62741,-2.66003 c 5.04518,-3.592487 9.35168,-12.910876 9.35168,-20.235152 0,-7.196233 -4.67264,-14.86872 -11.12894,-18.273753 -5.40418,-2.850152 -16.46155,-2.873138 -21.92942,-0.04559 -4.92558,2.547118 -10.92868,10.846105 -12.10691,16.737204 -2.00066,10.003365 4.40915,21.743221 13.375,24.496931 6.1105,1.87673 18.04056,0.45203 22.43859,-2.67964 z m 83.96529,2.14227 c 4.02227,-1.68061 5.12956,-1.68007 8.50573,0.004 5.84421,2.91548 11.83332,1.23999 13.59102,-3.80215 1.8654,-5.35109 1.93299,-5.2035 -1.93803,-4.231935 l -3.36072,0.843488 V 84.857106 c 0,-12.902229 -0.18126,-13.770129 -3.6968,-17.70225 -6.39912,-7.157386 -18.47408,-5.259731 -26.38956,4.147284 -4.66707,5.5465 -4.54339,8.010873 0.40206,8.010873 5.99994,0 8.17568,-1.315276 8.17568,-4.94233 0,-2.664088 0.59052,-3.226526 3.02465,-2.880825 2.4312,0.345284 3.10666,1.421144 3.44263,5.483314 0.40377,4.882058 0.19825,5.14773 -6.0493,7.820195 -11.36109,4.859835 -14.88506,10.43515 -11.08441,17.536753 2.6506,4.9527 8.42635,6.18499 15.37705,3.28081 z m 94.90895,0.56088 c 8.99218,-1.70534 11.6821,-4.31826 12.79359,-12.427392 0.79777,-5.820384 0.63439,-6.365675 -1.90725,-6.365675 -1.55737,0 -4.0489,1.78235 -5.66585,4.053149 -8.58842,12.061308 -26.12714,10.248718 -32.88647,-3.398746 -1.6705,-3.372833 -2.81078,-8.847435 -3.07623,-14.769431 -0.35238,-7.860827 0.0846,-10.274463 2.65442,-14.660786 3.97643,-6.787297 8.7274,-10.230677 15.33928,-11.117517 7.63853,-1.024542 14.71716,2.294895 17.54658,8.228241 1.37495,2.883309 3.24691,4.779323 4.71869,4.779323 2.04944,0 2.43631,-1.128721 2.41902,-7.057514 -0.0241,-8.272377 -0.76443,-9.761043 -5.80751,-11.678423 -5.57775,-2.120657 -23.58858,-1.729508 -31.73312,0.689161 -8.8872,2.639213 -19.31272,12.460271 -21.46827,20.223562 -3.27684,11.801658 -1.10434,24.650938 5.42529,32.087769 9.62317,10.960179 23.69965,14.818079 41.64783,11.414279 z m 44.62529,-0.063 c 4.93051,-1.36917 10.33069,-7.463345 10.34327,-11.672534 0.006,-1.99352 -6.19001,-2.275347 -7.38855,-0.336072 -1.35264,2.188603 -9.55698,1.533039 -12.61776,-1.008216 -1.55841,-1.293877 -3.20844,-4.293943 -3.66676,-6.666814 l -0.83332,-4.314308 11.91965,-0.390701 11.91963,-0.3907 0.41847,-5.062087 c 0.3419,-4.135812 -0.31563,-5.79619 -3.59339,-9.073946 -3.34834,-3.348335 -5.0885,-4.01186 -10.52161,-4.01186 -7.941,0 -14.81563,3.422073 -18.90246,9.409339 -2.33553,3.421563 -3.02465,6.331364 -3.02465,12.771419 0,9.862271 3.40223,16.11889 10.78109,19.82616 5.4105,2.71832 8.10316,2.88172 15.16639,0.92032 z M 90.739463,104.11375 c 0,-1.14676 -2.130847,-2.97535 -4.735215,-4.06352 l -4.735217,-1.978504 0.36628,-24.502601 0.366278,-24.5026 4.554951,-0.435118 c 6.769123,-0.64663 10.262578,0.645858 11.98937,4.435751 0.887565,1.947993 2.66811,3.392953 4.18096,3.392953 2.09636,0 2.82237,-1.24927 3.55145,-6.111122 0.89998,-6.001489 0.96458,-6.06781 3.60108,-3.696793 2.5688,2.310138 2.64352,3.487565 1.73136,27.283663 -0.70535,18.400826 -1.44574,25.42134 -2.84657,26.991621 -3.93972,4.41627 -2.28437,5.2713 10.20533,5.2713 10.97447,0 12.09859,-0.23644 12.09859,-2.54475 0,-1.39962 -0.90739,-2.89296 -2.01643,-3.31853 -1.59722,-0.612917 -2.01643,-3.437534 -2.01643,-13.586711 v -12.81293 h 4.48923 c 5.7721,0 7.60936,3.745144 7.60936,15.511177 0,7.207357 -0.45181,8.945398 -2.68857,10.342275 -1.47872,0.923469 -2.68858,2.743389 -2.68858,4.044259 0,2.08222 1.44756,2.36521 12.0986,2.36521 12.89336,0 14.7887,-1.18165 9.52949,-5.94117 -2.14669,-1.942732 -2.64398,-4.611991 -3.02464,-16.234916 -0.40981,-12.513273 -0.78083,-14.255823 -3.6952,-17.354949 -4.3841,-4.662043 -11.4201,-5.882474 -16.52578,-2.866478 -2.17017,1.281951 -4.30554,1.971041 -4.74527,1.531312 -0.43973,-0.439729 -1.08207,-7.152896 -1.42743,-14.91815 -0.70822,-15.924196 -0.91601,-16.139277 -11.86901,-12.285479 -3.81975,1.343975 -5.82197,1.445524 -7.503,0.380541 -1.66371,-1.054008 -3.53433,-1.003718 -6.816884,0.183268 -2.818851,1.019309 -12.355379,1.635891 -25.301964,1.635891 -16.798745,0 -21.361226,-0.408517 -23.823425,-2.133107 -3.693603,-2.5871 -6.442651,-0.899434 -7.457943,4.5785 -2.396748,12.93148 -2.391095,13.686068 0.102516,13.686068 1.329783,0 4.130654,-1.81479 6.224162,-4.032865 2.093508,-2.218076 4.586878,-4.032865 5.540824,-4.032865 0.953946,0 3.624852,-0.378082 5.935348,-0.840181 l 4.200901,-0.84018 v 25.493736 25.493737 l -3.277773,1.493453 c -1.802775,0.821394 -3.941314,2.733284 -4.752307,4.248644 -1.451363,2.7119 -1.199188,2.75519 16.048513,2.75519 14.936063,0 17.523045,-0.30782 17.523045,-2.08503 z M 274.3097,96.507646 c 1.28254,-7.824219 1.20083,-9.125501 -0.61688,-9.823023 -1.15241,-0.442218 -2.35527,-0.01325 -2.67305,0.953259 -0.31776,0.966511 -2.56697,3.752981 -4.99821,6.192154 -4.1898,4.203439 -4.86247,4.413885 -12.89077,4.032865 l -8.47031,-0.401996 -0.36688,-23.810663 -0.36689,-23.810661 4.06368,-2.101411 c 2.23503,-1.155775 4.06368,-2.993269 4.06368,-4.08332 0,-1.63625 -2.81347,-1.981911 -16.13146,-1.981911 -12.81199,0 -16.13147,0.381374 -16.13147,1.853343 0,1.019338 1.81479,2.605054 4.03287,3.52381 l 4.03286,1.670468 V 73.543574 98.36659 l -4.03286,1.522237 c -2.42569,0.915593 -4.03287,2.487563 -4.03287,3.944513 0,2.26397 1.7332,2.39846 26.52009,2.05779 l 26.52008,-0.36449 z m 27.48303,7.093144 c 0,-1.42889 -1.20986,-2.98198 -2.68857,-3.45131 -2.52069,-0.800032 -2.68858,-2.033952 -2.68858,-19.759769 V 61.483262 l -5.21906,0.700023 c -10.53769,1.4134 -17.2896,7.565011 -11.72266,10.680425 1.73779,0.972513 2.15455,3.645596 2.15455,13.819097 0,11.432721 -0.25165,12.693227 -2.68858,13.466673 -1.47872,0.46933 -2.68857,2.02242 -2.68857,3.45131 0,2.38548 1.04462,2.59799 12.77073,2.59799 11.72612,0 12.77074,-0.21251 12.77074,-2.59799 z m 213.74185,0.0774 c 0,-1.72517 -1.2726,-2.77506 -4.03286,-3.32711 l -4.03287,-0.806578 V 85.395917 71.247282 h 6.60942 c 4.07874,0 6.83384,-0.643395 7.19556,-1.68036 1.27721,-3.661496 -0.73682,-5.041081 -7.35936,-5.041081 h -6.7096 l 0.93018,-8.401802 c 0.60842,-5.495508 1.82575,-9.328048 3.51916,-11.079483 2.58237,-2.670848 2.60623,-2.667976 9.35404,1.125152 3.72079,2.091557 7.64093,3.46673 8.71142,3.055941 2.60241,-0.998631 2.49246,-8.158863 -0.16608,-10.81741 -3.16104,-3.161043 -17.49604,-2.851166 -22.98692,0.496904 -5.24611,3.198823 -11.21216,13.076389 -12.15817,20.129429 -0.48973,3.651125 -1.47947,5.464552 -3.23275,5.923045 -3.5251,0.921833 -3.38715,6.289665 0.16164,6.289665 2.51678,0 2.68858,0.896193 2.68858,14.024439 0,12.843807 -0.22634,14.096276 -2.68858,14.877759 -1.47872,0.46933 -2.68858,2.02242 -2.68858,3.45131 0,2.39459 1.05245,2.59799 13.44289,2.59799 12.24796,0 13.44288,-0.22405 13.44288,-2.52054 z m 220.46329,-0.003 c 0,-1.38818 -0.90739,-3.27704 -2.01643,-4.197462 -1.6855,-1.398834 -2.01643,-6.750874 -2.01643,-32.610243 V 35.930343 l -6.29805,0.863243 c -9.84803,1.349823 -16.34146,7.158899 -10.50556,9.398347 1.6976,0.651432 2.01643,4.945168 2.01643,27.155444 0,25.251112 -0.11522,26.411793 -2.68857,27.084743 -1.48802,0.38912 -2.68858,1.83363 -2.68858,3.23487 0,2.29199 1.14594,2.53179 12.0986,2.53179 10.9394,0 12.09859,-0.24183 12.09859,-2.52398 z m 26.88577,0.31967 c 0,-1.21237 -0.86503,-2.87592 -1.92227,-3.69679 -1.51752,-1.178232 -2.12311,-8.10537 -2.87613,-32.899036 l -0.95385,-31.406549 -4.85354,0.687944 c -8.01177,1.135597 -12.24711,3.315638 -12.24711,6.303916 0,1.497017 0.60493,2.721849 1.34428,2.721849 0.85146,0 1.34429,9.872178 1.34429,26.927957 0,22.695869 -0.31691,27.049566 -2.01643,27.701739 -1.10904,0.42557 -2.01643,1.91891 -2.01643,3.31853 0,2.30831 1.12412,2.54475 12.09859,2.54475 10.31642,0 12.0986,-0.32471 12.0986,-2.20431 z M 293.81538,56.412813 c 5.42283,-2.902212 1.87474,-14.739874 -4.41797,-14.739874 -5.24842,0 -7.769,2.544973 -7.769,7.84417 0,2.783549 0.72591,5.786914 1.61314,6.674144 1.98178,1.981771 7.08504,2.088704 10.57383,0.22156 z"
     id="path28" />
  <path
     style="fill:none;fill-opacity:0;stroke-width:1.34429"
     d="M 0.67214417,73.935859 V 0 H 409.3358 817.99946 V 73.935859 147.87172 H 409.3358 0.67214417 Z M 189.53726,103.64475 c 3.97205,-2.26261 7.42202,-8.627342 5.64151,-10.407849 -0.50366,-0.50366 -3.28147,-0.134984 -6.17293,0.819281 -3.06086,1.010177 -7.24662,1.361803 -10.01918,0.841665 -4.30425,-0.80748 -4.87024,-1.437967 -5.88772,-6.558735 l -1.1257,-5.665379 11.47429,-0.672144 11.47428,-0.672144 0.40123,-5.464761 c 0.32637,-4.445237 -0.27212,-6.138101 -3.20797,-9.073946 -3.09046,-3.090462 -4.73535,-3.609186 -11.44483,-3.609186 -6.91554,0 -8.41712,0.510553 -12.78766,4.347936 -8.64443,7.589916 -10.87127,18.101314 -6.05617,28.587129 2.729,5.942923 6.15219,9.448213 10.2425,10.488173 4.18959,1.0652 13.03255,-0.43325 17.46835,-2.96004 z M 335.56389,88.816743 c 4.26681,-9.929799 8.69763,-18.580107 9.84626,-19.222907 1.14861,-0.6428 2.08839,-2.348527 2.08839,-3.790505 0,-2.34982 -0.97612,-2.621779 -9.41002,-2.621779 -9.74311,0 -11.944,1.600647 -7.39359,5.377154 2.57063,2.13343 2.53479,4.168567 -0.22769,12.932203 l -2.24414,7.11921 -2.56676,-7.603015 c -2.46055,-7.28837 -2.53263,-10.32235 -0.36761,-15.473047 0.8998,-2.140656 -0.11362,-2.352505 -11.25358,-2.352505 -11.00343,0 -12.24242,0.251013 -12.24242,2.480228 0,1.364126 1.15534,3.525792 2.56741,4.803702 1.41208,1.277909 6.05866,10.170856 10.32574,19.762105 10.14396,22.800833 10.48416,22.777843 20.87801,-1.410844 z m 40.46093,15.166497 c 3.90977,-1.97272 6.42521,-5.605513 6.42521,-9.27925 0,-1.798102 -0.75751,-2.069491 -3.69679,-1.324398 -9.45966,2.397986 -13.13072,2.320726 -15.52668,-0.326774 -1.30162,-1.438269 -2.91095,-4.513178 -3.5763,-6.833132 l -1.20974,-4.218097 h 9.87838 c 13.01648,0 14.13113,-0.523046 14.13113,-6.630937 0,-5.673878 -3.55339,-9.880283 -10.34709,-12.248578 -9.3673,-3.26546 -23.46533,5.391456 -25.37727,15.582953 -1.31901,7.030881 0.0988,16.530019 3.07311,20.589805 5.59863,7.641798 16.50756,9.591978 26.22604,4.688408 z m 30.95633,2.14545 c 5.68502,-1.57882 9.07609,-6.583321 9.07609,-13.394413 0,-6.014057 -1.73683,-8.497396 -9.36782,-13.394191 -4.21718,-2.706153 -6.76364,-5.29968 -6.76364,-6.888652 0,-3.737921 5.12063,-3.237147 8.3059,0.812281 3.97898,5.058443 6.48128,4.343484 6.48128,-1.851831 0,-6.330746 -2.17637,-8.371913 -9.74683,-9.141364 -4.14994,-0.421793 -6.88755,0.157399 -10.00839,2.117467 -11.36452,7.13759 -10.78232,16.201399 1.58987,24.751745 4.40298,3.04286 7.41104,6.11661 7.41104,7.572871 0,3.367887 -5.08159,4.491407 -7.49335,1.656755 -9.0416,-10.626975 -10.26669,-10.788006 -9.71658,-1.27719 0.34341,5.937172 0.92667,7.287012 3.76705,8.718062 4.10301,2.06719 9.7736,2.17686 16.46538,0.31846 z m 69.62741,-2.66003 c 5.04518,-3.592487 9.35168,-12.910876 9.35168,-20.235152 0,-7.196233 -4.67264,-14.86872 -11.12894,-18.273753 -5.40418,-2.850152 -16.46155,-2.873138 -21.92942,-0.04559 -4.92558,2.547118 -10.92868,10.846105 -12.10691,16.737204 -2.00066,10.003365 4.40915,21.743221 13.375,24.496931 6.1105,1.87673 18.04056,0.45203 22.43859,-2.67964 z m 83.96529,2.14227 c 4.02227,-1.68061 5.12956,-1.68007 8.50573,0.004 5.84421,2.91548 11.83332,1.23999 13.59102,-3.80215 1.8654,-5.35109 1.93299,-5.2035 -1.93803,-4.231935 l -3.36072,0.843488 V 84.857106 c 0,-12.902229 -0.18126,-13.770129 -3.6968,-17.70225 -6.39912,-7.157386 -18.47408,-5.259731 -26.38956,4.147284 -4.66707,5.5465 -4.54339,8.010873 0.40206,8.010873 5.99994,0 8.17568,-1.315276 8.17568,-4.94233 0,-2.664088 0.59052,-3.226526 3.02465,-2.880825 2.4312,0.345284 3.10666,1.421144 3.44263,5.483314 0.40377,4.882058 0.19825,5.14773 -6.0493,7.820195 -11.36109,4.859835 -14.88506,10.43515 -11.08441,17.536753 2.6506,4.9527 8.42635,6.18499 15.37705,3.28081 z m 94.90895,0.56088 c 8.99218,-1.70534 11.6821,-4.31826 12.79359,-12.427392 0.79777,-5.820384 0.63439,-6.365675 -1.90725,-6.365675 -1.55737,0 -4.0489,1.78235 -5.66585,4.053149 -8.58842,12.061308 -26.12714,10.248718 -32.88647,-3.398746 -1.6705,-3.372833 -2.81078,-8.847435 -3.07623,-14.769431 -0.35238,-7.860827 0.0846,-10.274463 2.65442,-14.660786 3.97643,-6.787297 8.7274,-10.230677 15.33928,-11.117517 7.63853,-1.024542 14.71716,2.294895 17.54658,8.228241 1.37495,2.883309 3.24691,4.779323 4.71869,4.779323 2.04944,0 2.43631,-1.128721 2.41902,-7.057514 -0.0241,-8.272377 -0.76443,-9.761043 -5.80751,-11.678423 -5.57775,-2.120657 -23.58858,-1.729508 -31.73312,0.689161 -8.8872,2.639213 -19.31272,12.460271 -21.46827,20.223562 -3.27684,11.801658 -1.10434,24.650938 5.42529,32.087769 9.62317,10.960179 23.69965,14.818079 41.64783,11.414279 z m 44.62529,-0.063 c 4.93051,-1.36917 10.33069,-7.463345 10.34327,-11.672534 0.006,-1.99352 -6.19001,-2.275347 -7.38855,-0.336072 -1.35264,2.188603 -9.55698,1.533039 -12.61776,-1.008216 -1.55841,-1.293877 -3.20844,-4.293943 -3.66676,-6.666814 l -0.83332,-4.314308 11.91965,-0.390701 11.91963,-0.3907 0.41847,-5.062087 c 0.3419,-4.135812 -0.31563,-5.79619 -3.59339,-9.073946 -3.34834,-3.348335 -5.0885,-4.01186 -10.52161,-4.01186 -7.941,0 -14.81563,3.422073 -18.90246,9.409339 -2.33553,3.421563 -3.02465,6.331364 -3.02465,12.771419 0,9.862271 3.40223,16.11889 10.78109,19.82616 5.4105,2.71832 8.10316,2.88172 15.16639,0.92032 z M 90.739463,104.11375 c 0,-1.14676 -2.130847,-2.97535 -4.735215,-4.06352 l -4.735217,-1.978504 0.36628,-24.502601 0.366278,-24.5026 4.554951,-0.435118 c 6.769123,-0.64663 10.262578,0.645858 11.98937,4.435751 0.887565,1.947993 2.66811,3.392953 4.18096,3.392953 2.09636,0 2.82237,-1.24927 3.55145,-6.111122 0.89998,-6.001489 0.96458,-6.06781 3.60108,-3.696793 2.5688,2.310138 2.64352,3.487565 1.73136,27.283663 -0.70535,18.400826 -1.44574,25.42134 -2.84657,26.991621 -3.93972,4.41627 -2.28437,5.2713 10.20533,5.2713 10.97447,0 12.09859,-0.23644 12.09859,-2.54475 0,-1.39962 -0.90739,-2.89296 -2.01643,-3.31853 -1.59722,-0.612917 -2.01643,-3.437534 -2.01643,-13.586711 v -12.81293 h 4.48923 c 5.7721,0 7.60936,3.745144 7.60936,15.511177 0,7.207357 -0.45181,8.945398 -2.68857,10.342275 -1.47872,0.923469 -2.68858,2.743389 -2.68858,4.044259 0,2.08222 1.44756,2.36521 12.0986,2.36521 12.89336,0 14.7887,-1.18165 9.52949,-5.94117 -2.14669,-1.942732 -2.64398,-4.611991 -3.02464,-16.234916 -0.40981,-12.513273 -0.78083,-14.255823 -3.6952,-17.354949 -4.3841,-4.662043 -11.4201,-5.882474 -16.52578,-2.866478 -2.17017,1.281951 -4.30554,1.971041 -4.74527,1.531312 -0.43973,-0.439729 -1.08207,-7.152896 -1.42743,-14.91815 -0.70822,-15.924196 -0.91601,-16.139277 -11.86901,-12.285479 -3.81975,1.343975 -5.82197,1.445524 -7.503,0.380541 -1.66371,-1.054008 -3.53433,-1.003718 -6.816884,0.183268 -2.818851,1.019309 -12.355379,1.635891 -25.301964,1.635891 -16.798745,0 -21.361226,-0.408517 -23.823425,-2.133107 -3.693603,-2.5871 -6.442651,-0.899434 -7.457943,4.5785 -2.396748,12.93148 -2.391095,13.686068 0.102516,13.686068 1.329783,0 4.130654,-1.81479 6.224162,-4.032865 2.093508,-2.218076 4.586878,-4.032865 5.540824,-4.032865 0.953946,0 3.624852,-0.378082 5.935348,-0.840181 l 4.200901,-0.84018 v 25.493736 25.493737 l -3.277773,1.493453 c -1.802775,0.821394 -3.941314,2.733284 -4.752307,4.248644 -1.451363,2.7119 -1.199188,2.75519 16.048513,2.75519 14.936063,0 17.523045,-0.30782 17.523045,-2.08503 z M 274.3097,96.507646 c 1.28254,-7.824219 1.20083,-9.125501 -0.61688,-9.823023 -1.15241,-0.442218 -2.35527,-0.01325 -2.67305,0.953259 -0.31776,0.966511 -2.56697,3.752981 -4.99821,6.192154 -4.1898,4.203439 -4.86247,4.413885 -12.89077,4.032865 l -8.47031,-0.401996 -0.36688,-23.810663 -0.36689,-23.810661 4.06368,-2.101411 c 2.23503,-1.155775 4.06368,-2.993269 4.06368,-4.08332 0,-1.63625 -2.81347,-1.981911 -16.13146,-1.981911 -12.81199,0 -16.13147,0.381374 -16.13147,1.853343 0,1.019338 1.81479,2.605054 4.03287,3.52381 l 4.03286,1.670468 V 73.543574 98.36659 l -4.03286,1.522237 c -2.42569,0.915593 -4.03287,2.487563 -4.03287,3.944513 0,2.26397 1.7332,2.39846 26.52009,2.05779 l 26.52008,-0.36449 z m 27.48303,7.093144 c 0,-1.42889 -1.20986,-2.98198 -2.68857,-3.45131 -2.52069,-0.800032 -2.68858,-2.033952 -2.68858,-19.759769 V 61.483262 l -5.21906,0.700023 c -10.53769,1.4134 -17.2896,7.565011 -11.72266,10.680425 1.73779,0.972513 2.15455,3.645596 2.15455,13.819097 0,11.432721 -0.25165,12.693227 -2.68858,13.466673 -1.47872,0.46933 -2.68857,2.02242 -2.68857,3.45131 0,2.38548 1.04462,2.59799 12.77073,2.59799 11.72612,0 12.77074,-0.21251 12.77074,-2.59799 z m 213.74185,0.0774 c 0,-1.72517 -1.2726,-2.77506 -4.03286,-3.32711 l -4.03287,-0.806578 V 85.395917 71.247282 h 6.60942 c 4.07874,0 6.83384,-0.643395 7.19556,-1.68036 1.27721,-3.661496 -0.73682,-5.041081 -7.35936,-5.041081 h -6.7096 l 0.93018,-8.401802 c 0.60842,-5.495508 1.82575,-9.328048 3.51916,-11.079483 2.58237,-2.670848 2.60623,-2.667976 9.35404,1.125152 3.72079,2.091557 7.64093,3.46673 8.71142,3.055941 2.60241,-0.998631 2.49246,-8.158863 -0.16608,-10.81741 -3.16104,-3.161043 -17.49604,-2.851166 -22.98692,0.496904 -5.24611,3.198823 -11.21216,13.076389 -12.15817,20.129429 -0.48973,3.651125 -1.47947,5.464552 -3.23275,5.923045 -3.5251,0.921833 -3.38715,6.289665 0.16164,6.289665 2.51678,0 2.68858,0.896193 2.68858,14.024439 0,12.843807 -0.22634,14.096276 -2.68858,14.877759 -1.47872,0.46933 -2.68858,2.02242 -2.68858,3.45131 0,2.39459 1.05245,2.59799 13.44289,2.59799 12.24796,0 13.44288,-0.22405 13.44288,-2.52054 z m 220.46329,-0.003 c 0,-1.38818 -0.90739,-3.27704 -2.01643,-4.197462 -1.6855,-1.398834 -2.01643,-6.750874 -2.01643,-32.610243 V 35.930343 l -6.29805,0.863243 c -9.84803,1.349823 -16.34146,7.158899 -10.50556,9.398347 1.6976,0.651432 2.01643,4.945168 2.01643,27.155444 0,25.251112 -0.11522,26.411793 -2.68857,27.084743 -1.48802,0.38912 -2.68858,1.83363 -2.68858,3.23487 0,2.29199 1.14594,2.53179 12.0986,2.53179 10.9394,0 12.09859,-0.24183 12.09859,-2.52398 z m 26.88577,0.31967 c 0,-1.21237 -0.86503,-2.87592 -1.92227,-3.69679 -1.51752,-1.178232 -2.12311,-8.10537 -2.87613,-32.899036 l -0.95385,-31.406549 -4.85354,0.687944 c -8.01177,1.135597 -12.24711,3.315638 -12.24711,6.303916 0,1.497017 0.60493,2.721849 1.34428,2.721849 0.85146,0 1.34429,9.872178 1.34429,26.927957 0,22.695869 -0.31691,27.049566 -2.01643,27.701739 -1.10904,0.42557 -2.01643,1.91891 -2.01643,3.31853 0,2.30831 1.12412,2.54475 12.09859,2.54475 10.31642,0 12.0986,-0.32471 12.0986,-2.20431 z M 293.81538,56.412813 c 5.42283,-2.902212 1.87474,-14.739874 -4.41797,-14.739874 -5.24842,0 -7.769,2.544973 -7.769,7.84417 0,2.783549 0.72591,5.786914 1.61314,6.674144 1.98178,1.981771 7.08504,2.088704 10.57383,0.22156 z"
     id="path29" />
  <path
     style="fill:none;fill-opacity:0;stroke-width:0.770415"
     d="m 58.166309,104.03599 c 0,-1.25669 3.201489,-3.80213 5.903761,-4.693964 l 2.5708,-0.848441 V 72.74444 46.995296 h -5.903027 c -4.908969,0 -6.457327,0.324841 -9.194631,1.929009 -1.810383,1.060955 -4.031241,2.967731 -4.93524,4.23728 -0.903999,1.26955 -2.187933,2.308272 -2.853186,2.308272 -1.031373,0 -1.132427,-0.766052 -0.685993,-5.200299 0.672653,-6.681182 1.715628,-10.553348 3.16701,-11.757888 0.94682,-0.785791 1.719638,-0.58563 4.279475,1.10839 l 3.123989,2.067359 22.522796,-0.235117 c 20.309789,-0.212015 22.73457,-0.374005 24.678107,-1.648649 2.91077,-1.908984 6.18855,-1.175019 5.60222,1.254457 -0.22564,0.934948 -0.65215,4.225814 -0.94779,7.313038 -0.40738,4.254035 -0.87358,5.792982 -1.92544,6.355921 -1.981,1.060197 -1.89601,1.118952 -4.49767,-3.109285 L 96.701285,47.76571 h -7.628842 c -6.245806,0 -7.71362,0.220927 -8.096475,1.218632 -0.257199,0.670249 -0.467634,12.257363 -0.467634,25.749145 V 99.264 l 2.889056,0.94698 c 3.398092,1.11382 6.355921,2.92112 6.355921,3.88361 0,0.37499 -7.107076,0.68181 -15.793501,0.68181 -9.588607,0 -15.793501,-0.29089 -15.793501,-0.74041 z"
     id="path30" />
  <path
     style="fill:none;fill-opacity:0;stroke-width:0.770415"
     d="m 58.166309,104.03599 c 0,-1.25669 3.201489,-3.80213 5.903761,-4.693964 l 2.5708,-0.848441 V 72.74444 46.995296 h -5.903027 c -4.908969,0 -6.457327,0.324841 -9.194631,1.929009 -1.810383,1.060955 -4.031241,2.967731 -4.93524,4.23728 -0.903999,1.26955 -2.187933,2.308272 -2.853186,2.308272 -1.031373,0 -1.132427,-0.766052 -0.685993,-5.200299 0.672653,-6.681182 1.715628,-10.553348 3.16701,-11.757888 0.94682,-0.785791 1.719638,-0.58563 4.279475,1.10839 l 3.123989,2.067359 22.522796,-0.235117 c 20.309789,-0.212015 22.73457,-0.374005 24.678107,-1.648649 2.91077,-1.908984 6.18855,-1.175019 5.60222,1.254457 -0.22564,0.934948 -0.65215,4.225814 -0.94779,7.313038 -0.40738,4.254035 -0.87358,5.792982 -1.92544,6.355921 -1.981,1.060197 -1.89601,1.118952 -4.49767,-3.109285 L 96.701285,47.76571 h -7.628842 c -6.245806,0 -7.71362,0.220927 -8.096475,1.218632 -0.257199,0.670249 -0.467634,12.257363 -0.467634,25.749145 V 99.264 l 2.889056,0.94698 c 3.398092,1.11382 6.355921,2.92112 6.355921,3.88361 0,0.37499 -7.107076,0.68181 -15.793501,0.68181 -9.588607,0 -15.793501,-0.29089 -15.793501,-0.74041 z"
     id="path31" />
  <path
     style="fill:none;fill-opacity:0;stroke-width:0.770415"
     d="m 58.166309,104.03599 c 0,-1.25669 3.201489,-3.80213 5.903761,-4.693964 l 2.5708,-0.848441 V 72.74444 46.995296 h -5.903027 c -4.908969,0 -6.457327,0.324841 -9.194631,1.929009 -1.810383,1.060955 -4.031241,2.967731 -4.93524,4.23728 -0.903999,1.26955 -2.187933,2.308272 -2.853186,2.308272 -1.031373,0 -1.132427,-0.766052 -0.685993,-5.200299 0.672653,-6.681182 1.715628,-10.553348 3.16701,-11.757888 0.94682,-0.785791 1.719638,-0.58563 4.279475,1.10839 l 3.123989,2.067359 22.522796,-0.235117 c 20.309789,-0.212015 22.73457,-0.374005 24.678107,-1.648649 2.91077,-1.908984 6.18855,-1.175019 5.60222,1.254457 -0.22564,0.934948 -0.65215,4.225814 -0.94779,7.313038 -0.40738,4.254035 -0.87358,5.792982 -1.92544,6.355921 -1.981,1.060197 -1.89601,1.118952 -4.49767,-3.109285 L 96.701285,47.76571 h -7.628842 c -6.245806,0 -7.71362,0.220927 -8.096475,1.218632 -0.257199,0.670249 -0.467634,12.257363 -0.467634,25.749145 V 99.264 l 2.889056,0.94698 c 3.398092,1.11382 6.355921,2.92112 6.355921,3.88361 0,0.37499 -7.107076,0.68181 -15.793501,0.68181 -9.588607,0 -15.793501,-0.29089 -15.793501,-0.74041 z"
     id="path32" />
</svg>
